
<svg version="1.1" id="Layer_1" xmlns="http://www.w3.org/2000/svg" xmlns:xlink="http://www.w3.org/1999/xlink" x="0px" y="0px"
	 viewBox="0 0 100 100" style="enable-background:new 0 0 100 100;" xml:space="preserve">
<g id="TyreBack">
	<ellipse id="XMLID_43_" cx="80.1" cy="70.4" rx="15" ry="13.5"/>
</g>
<g id="TyreFront">
	<ellipse id="XMLID_42_" cx="19.5" cy="70.4" rx="15" ry="13.5"/>
</g>
<g id="Body">
	<path id="XMLID_41_" d="M47.2,76.1c5.4,0.8,12.1,0.7,14.9,0.6c0.8,0,1.4-0.6,1.4-1.4c2.1-29.7,28.1-16.1,28.8-15.7l0.1,0.1
		c0,0,2.6-4.1,4.3-7.9l0.1-0.2c3.1-11.5-13.7-1.3-15.8-1.1c-3,0.4-7,0.4-8.6,0.4c-0.5,0-0.9-0.2-1.2-0.7l-3.1-4.7
		c-0.5-0.7-1.4-0.9-2.1-0.4l-7.2,5.1c-0.2,0.2-0.5,0.3-0.8,0.3l-14.4,0.7c-0.4,0-0.7,0.2-1,0.5l-1.4,1.4c-0.3,0.4-0.9,0.5-1.3,0.4
		c-1.6-0.3-5.3-1.4-7.2-5.2c-0.3-0.6-0.1-1.4,0.4-1.8L46,36.6c0.6-0.5,1.5-0.4,2,0.2l8.3,9.6c0.5,0.5,1.3,0.7,1.9,0.3
		c1.6-1,4.7-2.9,5.9-4.6c0.3-0.5,0.4-1.1,0.1-1.6c-1.3-2.4-5.6-10.1-10.4-12c-5.1-2.6-10,1.7-10.5,4c-0.1,0.3-8.8,6.9-10.7,8.3
		c-0.6,0.5-1.6,0.3-2-0.3l0,0c-0.4-0.6-1.2-0.7-1.8-0.4c-5,2.3-25.7,12.3-26,17.1c-1.4,7.7,25-12.3,33.2,9.5c0.7,1.6,1.1,3.8,2.4,6
		c0.1,0.2,0.4,0.4,0.6,0.6C39.9,74.1,43.1,75.6,47.2,76.1z"/>
</g>
<g id="Helmet">
	<path id="XMLID_40_" d="M40.2,30l-0.7-1.2c-0.3-0.6-0.3-1.1,0.3-1.5l4.2-1.7c0.4-0.1,0.6-0.4,0.8-0.8c0.2-0.6,0.4-1.4,0.4-2.1
		c0-1.2-0.8-2-0.8-2c-0.6-0.5-2.4-0.2-3.3-0.1c-0.8,0.1-1.1-0.2-1.1-0.2s1.7-4.7,7.2-4.2c4.8,0.4,8,2.9,6.7,10.3
		c0,0-5.8-0.8-9.3,1.1L40.2,30z"/>
</g>
</svg>
