<?xml version="1.0" encoding="utf-8"?>

<svg version="1.1" id="Layer_1" xmlns="http://www.w3.org/2000/svg" xmlns:xlink="http://www.w3.org/1999/xlink" x="0px" y="0px"
	 viewBox="0 0 100 100" style="enable-background:new 0 0 100 100;" xml:space="preserve">
<style type="text/css">
	.st0{fill:#030303;}
</style>
<path id="Bike" class="st0" d="M46.1,75.6c-6.5-0.7-8.9-2.4-10.4-7.4c-1.3-4.6-3.3-7.8-6.4-10.1c-2.3-1.8-6-3.7-9-3.7
	c-1.8-0.1-4,0.7-5.7,1.2C13.3,55.9,2,60.1,2,57c0-3.1,16.6-13.3,22.1-15.7c4.4-2,5.4-2.1,5.8-0.9c0.2,0.5,0.6,0.9,0.8,0.9
	c0.3,0,4.5-3,9.3-6.6c11.9-8.9,12.9-8.9,19.6,0.1c2.2,3,4.2,5.8,4.4,6.2c0.3,0.7-6.5,6.2-7.7,6.1c-0.3,0-2.4-2.6-4.6-5.8
	c-2.6-3.6-4.6-5.8-5.2-5.8c-1.2,0-14.5,10.1-15,11.4c-0.3,1,2.8,4.5,5.1,5.7c2.2,1.2,3.6,1,4.6-0.5c0.8-1.2,1.3-1.3,8.6-1.5l7.7-0.2
	l4.2-3.1c2.3-1.7,4.4-3.1,4.6-3.1c0.3,0,1.4,1.4,2.5,3.2l2,3.2h7c7.4,0.1,28.9-14.3,14,8.6c-0.3,1-7-4.7-11.4-4.4
	c-6.1,0.3-9.4,1.6-12.7,5.1c-3.7,3.8-5,7-5,12.3v4.4l-6.3-0.1C53.1,76.1,48.4,75.9,46.1,75.6z M41.5,27.6c-0.6-1.5,0.1-2.2,2.7-2.9
	c2.4-0.6,2.6-0.7,2.8-2.9c0.2-2.7-0.6-3.3-3.2-2.9c-2.1,0.4-2.3-0.1-0.9-1.9s3.2-2.5,5.9-2.5c4.8,0,7.7,3.1,7.4,7.7L56,24.6h-3.7
	c-3.2,0-4.2,0.2-6.7,1.9C42.3,28.7,42,28.7,41.5,27.6z"/>
<circle id="XMLID_2_" class="st0" cx="18.7" cy="71.6" r="14.4"/>
<circle id="XMLID_4_" class="st0" cx="79.3" cy="71.3" r="14.4"/>
</svg>
