
<svg version="1.1" id="Layer_1" xmlns="http://www.w3.org/2000/svg" xmlns:xlink="http://www.w3.org/1999/xlink" x="0px" y="0px"
	 viewBox="75 75 100 100" style="enable-background:new 75 75 100 100;" xml:space="preserve">
<style type="text/css">
	.st0{fill:#020202;}
</style>
<path id="path3549" class="st0" d="M79.8,136.1c-0.2-0.3-2.8-4.9-2.8-8.4l6.3-2.7l2.2-6.1c1.2-3.4,2.2-6.5,2.2-6.9
	c0-0.4-0.2-0.8-0.5-1c-0.4-0.2-0.5-0.6-0.5-1.5v-1.2h39.8c30.3,0,40,0.1,40.5,0.3c0.4,0.2,0.8,0.6,1.1,1c0.2,0.4,1.1,3.5,2.1,6.9
	l1.7,6.2v5.9c0,6.5-0.1,7.2-1.5,7.7c-0.5,0.2-2.6,0.3-6.5,0.2l-5.8,0l-0.1-0.6c0-0.3-0.4-1.4-0.8-2.3c-0.8-1.7-2.3-3.2-4.2-4.1
	c-1.3-0.6-4.7-0.6-6,0c-2.3,1-4.5,3.7-5,6.2l-0.2,1l-15.6,0l-15.6,0l-0.2-1.1c-0.4-2.4-2.3-4.7-4.8-5.8c-1.4-0.6-4.2-0.7-5.7-0.2
	c-2.4,0.8-4.8,3.6-5.3,6l-0.2,1.2l-5.4,0C83.9,136.7,80.1,136.7,79.8,136.1z M98.8,123.1c0.3-0.3,0.3-1.7,0.3-5.9
	c0-5.1,0-5.5-0.5-5.9c-0.4-0.3-1.5-0.4-4.6-0.4c-3.5,0-4.1,0-4.5,0.5c-0.5,0.5-3.9,9.8-3.9,10.6c0,0.3,0.2,0.7,0.4,1
	c0.4,0.4,1,0.5,6.4,0.5C97.7,123.6,98.5,123.5,98.8,123.1z M112.5,123.1c0.3-0.2,0.5-0.8,0.5-1.3c0-1.2-2.8-10.4-3.2-10.6
	c-0.2-0.1-2.1-0.2-4.1-0.2c-5,0-4.8-0.3-4.9,5.6c-0.1,4.8,0,6,0.6,6.6C101.9,123.8,111.7,123.7,112.5,123.1z M126.1,123.1
	c0.2-0.2,0.5-0.7,0.5-0.9c0-0.9-2.7-10.3-3.1-10.7c-0.3-0.4-1-0.4-5.4-0.4c-6.7,0-6.7,0-5.1,5.3c1.3,4.6,1.9,6.3,2.3,6.8
	c0.3,0.4,1,0.4,5.4,0.4C124.9,123.6,125.7,123.5,126.1,123.1z M139.9,122.9c0.4-0.6,0.3-0.9-1.1-6c-0.9-3.3-1.7-5.4-1.9-5.7
	c-0.3-0.2-1.8-0.3-5.4-0.3c-5.4,0-5.7,0.1-5.7,1.7c0,1,2.3,9.5,2.8,10.3c0.4,0.6,0.5,0.6,5.6,0.6h5.3L139.9,122.9z M153.4,123.2
	c0.2-0.2,0.3-0.7,0.3-1.2c0-1.4-2.6-10.3-3.1-10.7c-0.3-0.2-1.8-0.3-5.4-0.3c-4.6,0-5,0-5.5,0.5c-0.3,0.3-0.5,0.6-0.5,0.8
	c0,0.6,2.8,10.1,3.1,10.7c0.4,0.6,0.5,0.6,5.6,0.6C151.6,123.6,153.2,123.5,153.4,123.2z M166.9,123.1c0.7-0.6,0.6-1.5-0.7-6.3
	c-1.2-4.4-1.6-5.3-2.1-5.6c-0.1-0.1-2.5-0.2-5.2-0.2c-4.2,0-5,0-5.4,0.4c-0.2,0.2-0.5,0.7-0.5,1c0,0.8,2.6,9.8,3.1,10.5
	c0.4,0.6,0.5,0.6,5.4,0.6C165.7,123.6,166.5,123.5,166.9,123.1z"/>
<circle id="XMLID_1_" class="st0" cx="102.3" cy="137" r="6.5"/>
<circle id="XMLID_10_" class="st0" cx="149.9" cy="136.8" r="6.5"/>
</svg>
