<?xml version="1.0" encoding="utf-8"?>
<svg version="1.1" id="Layer_1" xmlns="http://www.w3.org/2000/svg" xmlns:xlink="http://www.w3.org/1999/xlink" x="0px" y="0px"
	 viewBox="0 0 100 100" style="enable-background:new 0 0 100 100;" xml:space="preserve">
<style type="text/css">
	.st0{fill:#030303;}
</style>
<path id="path3549" class="st0" d="M5.8,60.1C5.6,59.8,3,55.2,3,51.7L9.3,49l2.2-6.1c1.2-3.4,2.2-6.5,2.2-6.9s-0.2-0.8-0.5-1
	c-0.4-0.2-0.5-0.6-0.5-1.5v-1.2h39.8c30.3,0,40,0.1,40.5,0.3c0.4,0.2,0.8,0.6,1.1,1c0.2,0.4,1.1,3.5,2.1,6.9l1.7,6.2v5.9
	c0,6.5-0.1,7.2-1.5,7.7c-0.5,0.2-2.6,0.3-6.5,0.2h-5.8L84,59.9c0-0.3-0.4-1.4-0.8-2.3c-0.8-1.7-2.3-3.2-4.2-4.1
	c-1.3-0.6-4.7-0.6-6,0c-2.3,1-4.5,3.7-5,6.2l-0.2,1H52.2H36.6l-0.2-1.1c-0.4-2.4-2.3-4.7-4.8-5.8c-1.4-0.6-4.2-0.7-5.7-0.2
	c-2.4,0.8-4.8,3.6-5.3,6l-0.2,1.2H15C9.9,60.7,6.1,60.7,5.8,60.1z M24.8,47.1c0.3-0.3,0.3-1.7,0.3-5.9c0-5.1,0-5.5-0.5-5.9
	c-0.4-0.3-1.5-0.4-4.6-0.4c-3.5,0-4.1,0-4.5,0.5c-0.5,0.5-3.9,9.8-3.9,10.6c0,0.3,0.2,0.7,0.4,1c0.4,0.4,1,0.5,6.4,0.5
	C23.7,47.6,24.5,47.5,24.8,47.1z M38.5,47.1c0.3-0.2,0.5-0.8,0.5-1.3c0-1.2-2.8-10.4-3.2-10.6c-0.2-0.1-2.1-0.2-4.1-0.2
	c-5,0-4.8-0.3-4.9,5.6c-0.1,4.8,0,6,0.6,6.6C27.9,47.8,37.7,47.7,38.5,47.1z M52.1,47.1c0.2-0.2,0.5-0.7,0.5-0.9
	c0-0.9-2.7-10.3-3.1-10.7c-0.3-0.4-1-0.4-5.4-0.4c-6.7,0-6.7,0-5.1,5.3c1.3,4.6,1.9,6.3,2.3,6.8c0.3,0.4,1,0.4,5.4,0.4
	C50.9,47.6,51.7,47.5,52.1,47.1z M65.9,46.9c0.4-0.6,0.3-0.9-1.1-6c-0.9-3.3-1.7-5.4-1.9-5.7c-0.3-0.2-1.8-0.3-5.4-0.3
	c-5.4,0-5.7,0.1-5.7,1.7c0,1,2.3,9.5,2.8,10.3c0.4,0.6,0.5,0.6,5.6,0.6h5.3L65.9,46.9z M79.4,47.2c0.2-0.2,0.3-0.7,0.3-1.2
	c0-1.4-2.6-10.3-3.1-10.7c-0.3-0.2-1.8-0.3-5.4-0.3c-4.6,0-5,0-5.5,0.5c-0.3,0.3-0.5,0.6-0.5,0.8c0,0.6,2.8,10.1,3.1,10.7
	c0.4,0.6,0.5,0.6,5.6,0.6C77.6,47.6,79.2,47.5,79.4,47.2z M92.9,47.1c0.7-0.6,0.6-1.5-0.7-6.3c-1.2-4.4-1.6-5.3-2.1-5.6
	C90,35.1,87.6,35,84.9,35c-4.2,0-5,0-5.4,0.4c-0.2,0.2-0.5,0.7-0.5,1c0,0.8,2.6,9.8,3.1,10.5c0.4,0.6,0.5,0.6,5.4,0.6
	C91.7,47.6,92.5,47.5,92.9,47.1z"/>
<circle id="XMLID_1_" class="st0" cx="28.3" cy="61" r="6.5"/>
<circle id="XMLID_10_" class="st0" cx="75.9" cy="60.8" r="6.5"/>
</svg>
