
<svg version="1.1" id="Layer_1" xmlns="http://www.w3.org/2000/svg" xmlns:xlink="http://www.w3.org/1999/xlink" x="0px" y="0px"
	 viewBox="0 0 100 100" style="enable-background:new 0 0 100 100;" xml:space="preserve">
<g id="TyreBack">
	<ellipse id="XMLID_36_" cx="75.5" cy="60.9" rx="7.5" ry="6.5"/>
</g>
<g id="TyreFront">
	<ellipse id="XMLID_35_" cx="28.6" cy="60.9" rx="7.5" ry="6.5"/>
</g>
<g id="Body">
	<path id="XMLID_27_" d="M87.8,32.6c-24.5,0.3-49,0-73.6,0c-1.6,0-2.4,2-1.3,3.1H13c0.3,0.2-3.3,9.1-4.7,13c0,0.1-5.7,4.8-5,6.8
		C4.2,57.8,5.5,60.4,7,61c1.3,0.5,10.1,0.3,13,0.3c0.1-3.8,1.8-6.9,7.2-7.5c10.1-1.1,9.1,7.4,10,7.4c9.6,0,19.3,0.3,28.9,0
		c2.4-0.1,0.2-7.7,9.2-7.7c8.1,0,8.1,7.1,8.2,7.4c4,0,7.9,0,11.8,0C96.9,60.7,99.7,32.5,87.8,32.6z M22.9,40.6l-2.2,8.3
		c-0.1,0.5-0.5,0.9-1,1.2c-1.7,1.3-4,0.5-4.6-1.5c-1.2-3.8-1.6-9.4,0.6-10.5h5.5C22.4,38.2,23.2,39.2,22.9,40.6z M39.1,40.2
		l-1.4,5.2c-0.4,1.7-2.1,3-3.8,3h-3.3c-1.7,0-2.6-1.3-2.2-3l1.4-5.2c0.4-1.7,2.1-3,3.8-3h3.3C38.5,37.2,39.5,38.5,39.1,40.2z
		 M51.4,40.2L50,45.4c-0.4,1.7-2.1,3-3.8,3h-3.3c-1.7,0-2.6-1.3-2.2-3l1.4-5.2c0.4-1.7,2.1-3,3.8-3h3.3
		C50.9,37.2,51.8,38.5,51.4,40.2z M63.7,40.2l-1.4,5.2c-0.4,1.7-2.1,3-3.8,3h-3.3c-1.7,0-2.6-1.3-2.2-3l1.4-5.2c0.4-1.7,2.1-3,3.8-3
		h3.3C63.2,37.2,64.2,38.5,63.7,40.2z M75.4,40.2L74,45.4c-0.4,1.7-2.1,3-3.8,3h-3.3c-1.7,0-2.6-1.3-2.2-3l1.4-5.2
		c0.4-1.7,2.1-3,3.8-3h3.3C74.9,37.2,75.8,38.5,75.4,40.2z M87.7,40.2l-1.4,5.2c-0.4,1.7-2.1,3-3.8,3h-3.3c-1.7,0-2.6-1.3-2.2-3
		l1.4-5.2c0.4-1.7,2.1-3,3.8-3h3.3C87.2,37.2,88.2,38.5,87.7,40.2z"/>
</g>
</svg>
