
<svg version="1.1" id="Layer_1" xmlns="http://www.w3.org/2000/svg" xmlns:xlink="http://www.w3.org/1999/xlink" x="0px" y="0px"
	 viewBox="0 0 100 100" style="enable-background:new 0 0 100 100;" xml:space="preserve">
<g id="TyreBack">
	<ellipse id="XMLID_31_" cx="79.6" cy="59.8" rx="7.5" ry="6.6"/>
</g>
<g id="TyreFront">
	<ellipse id="XMLID_30_" cx="16.8" cy="59.8" rx="7.5" ry="6.6"/>
</g>
<g id="Car">
	<path d="M97.4,38.9C89.3,48,78,38.4,73.1,34.8c-1.1-0.8-2.4-1.2-3.8-1.2H45.7c-6.4,0.2-11.1,6.2-11.1,6.2l-6.2,6.1l-12.7,2.2
		c-9.9,1.7-12.9,5.4-13.1,5.7s-0.1,6.7,0.7,7.1c0.8,0.3,4,0.2,4.3-0.1c0.2-0.1-0.5-8.4,9.4-8.4c10.2,0,9.3,8.6,9.3,8.6h21.9
		c23.5,0.1,22.4,0.9,22.4-0.5c0-1.2-0.6-8.2,9-8.2c9,0,8.7,9.3,8.7,9.3s5.1-0.5,5.1-7.8C93.4,48,98,38.3,97.4,38.9z M57.9,45.5
		c0,0.8-0.6,1.4-1.3,1.4H34.7c-1.1,0-1.7-1.4-1.1-2.3l4.3-5.8c0.9-1.2,2.2-1.9,3.4-1.9h15.2c0.7,0,1.3,0.6,1.3,1.4L57.9,45.5
		L57.9,45.5L57.9,45.5z M75.5,46.9H61.9c-0.9,0-1.6-0.7-1.6-1.6v-6.9c0-0.9,0.7-1.6,1.6-1.6h9.7c0.9,0,1.7,0.7,2.3,1.9l2.9,5.8
		C77.4,45.6,76.6,46.9,75.5,46.9z"/>
</g>
</svg>
