<?xml version="1.0" encoding="utf-8"?>

<svg version="1.1" id="Layer_1" xmlns="http://www.w3.org/2000/svg" xmlns:xlink="http://www.w3.org/1999/xlink" x="0px" y="0px"
	 viewBox="0 0 100 100" style="enable-background:new 0 0 100 100;" xml:space="preserve">
<style type="text/css">
	.st0{fill:#030303;}
</style>
<path id="path2962" class="st0" d="M2.7,54.1c0.2-0.3,3.2-4,13.1-5.7l12.7-2.2l6.2-6.1c0,0,1.4-1.4,3.1-3.1s5.3-3.1,8-3.1h12.7h12.7
	c2.7,0,6.6,1.4,8.8,3.1l4.2,3.3c4.4,3.5,12.9-1.5,13.3-1.1c0.6,0.6-4,9.1-4,14.9c0,7.3,0,7.1-2.6,7.1h-1.8l-0.4-1.6
	c-0.6-2.3-1.1-3.1-2.8-4.6c-2.1-1.9-3.4-2.4-6.2-2.4s-4.2,0.5-6.2,2.3c-1.3,1.2-2.8,3.9-2.8,5.1c0,1.4,1.1,1.4-22.4,1.3H26.4
	L26,59.7c-0.6-2.3-1.1-3.1-2.8-4.6c-2.1-1.8-3.4-2.4-6.1-2.4s-4.1,0.5-6,2.1c-1.5,1.3-3.1,4-3.1,5.3c0,0.4-0.1,0.9-0.3,1
	c-0.3,0.3-3.5,0.4-4.3,0.1C2.6,60.8,2.5,54.4,2.7,54.1z M56.7,47.8c0.3-0.2,0.4-1.2,0.5-5.1c0-3.2,0-5.1-0.2-5.4
	c-0.3-0.5-0.5-0.5-8.2-0.5h-5.7c-1.4,0-2.8,0.5-3.8,1.5l-3.1,3c-3.8,3.7-4.7,4.7-4.7,5.3c0,1.6,0,1.6,13,1.6
	C51.5,48.1,56.5,48,56.7,47.8z M81.1,45.8c0-0.7-0.6-1.4-4.1-5c0,0-0.9-0.9-2.1-2.1s-3.5-2.1-5.3-2.1h-3.2c-3.5,0-6.6,0.1-6.8,0.1
	c-0.4,0.1-0.4,0.9-0.4,5.4c0,3.8,0.1,5.3,0.3,5.6c0.2,0.2,2.7,0.3,10.3,0.2l9.9-0.1l0.7-0.6C80.9,46.9,81.1,46.3,81.1,45.8z"/>
<circle id="XMLID_4_" class="st0" cx="17.1" cy="60.1" r="6.6"/>
<circle id="XMLID_6_" class="st0" cx="79.9" cy="60.1" r="6.6"/>
</svg>
