<?xml version="1.0" encoding="utf-8"?>

<svg version="1.1" id="Layer_1" xmlns="http://www.w3.org/2000/svg" xmlns:xlink="http://www.w3.org/1999/xlink" x="0px" y="0px"
	 viewBox="0 0 100 100" style="enable-background:new 0 0 100 100;" xml:space="preserve">
<style type="text/css">
	.st0{fill:#030303;}
</style>
<circle id="XMLID_5_" class="st0" cx="17.4" cy="66.3" r="8"/>
<circle id="XMLID_7_" class="st0" cx="74.9" cy="67.2" r="8"/>
<path id="XMLID_6_" class="st0" d="M93.3,56.3V24.2H32v32h-2.9c-0.2-1.1-0.2-4-0.2-11.2c0-6.5-0.1-11.8-0.2-11.9
	c-0.2-0.2-15.6,0.6-17.4,1c-0.6,0.1-1.4,0.5-1.7,1c-0.3,0.4-1.5,3.6-2.9,7l-2.3,6.2l-1.7,6.8l2.4,8.1c1.1-0.2,1.2,0.3,2.1-2.1
	c0.5-1.3,1.1-2.7,1.5-3.2c1.8-2.3,6.1-4.2,8.9-3.8c4,0.5,7.4,3.5,8.7,7.5l0.6,1.9l18.5,0.1l18.5,0.1l0.8-2.5c0.3-1,1.1-2.3,1.5-3.1
	h16l0.1,0.1c1.2,1.8,1.9,3.5,1.9,4.2c0,0.4,0.1,0.9,0.2,1c0.6,0.6,4.8,0.2,7.5-0.7l2.9-1l0.1-2.2l0.1-1.4h2.9v-1.8L93.3,56.3
	L93.3,56.3z M21.7,47.2c-0.4,0.2-3.4,0.6-6.6,0.9c-7.9,0.7-8.3,0.7-8.6-0.3c-0.2-0.9,3.1-10,4-10.9c0.5-0.5,10.5-1.4,11.5-1
	c0.4,0.2,0.5,1.1,0.5,5.6C22.5,46.7,22.5,46.9,21.7,47.2z"/>
</svg>
