<?xml version="1.0" encoding="utf-8"?>

<svg version="1.1" id="Layer_1" xmlns="http://www.w3.org/2000/svg" xmlns:xlink="http://www.w3.org/1999/xlink" x="0px" y="0px"
	 viewBox="0 0 100 100" style="enable-background:new 0 0 100 100;" xml:space="preserve">
<style type="text/css">
	.st0{fill:#030303;}
</style>
<path id="XMLID_21_" class="st0" d="M96.4,54.1c0,0,0.9-7.1,0.9-7.2L94,37c-2.6-9-3.2-10.7-4.3-11.3c-0.5-0.3-13.3-0.4-38.6-0.4
	H14.8c-0.5,0-0.9,0.2-1.2,0.5c-0.3,0.3-0.5,0.7-0.5,1.2c0,1.3,0.2,1.8,0.7,2.1c0.5,0.3,0.7,0.8,0.7,1.5c0,0.6-1.3,4.7-3,9.2
	c-0.1,0.2-0.2,0.5-0.4,0.6l-8.4,8.3c-0.3,0.3-0.5,0.8-0.5,1.2l0.1,8.5c0,0.4,0.2,0.8,0.4,1.2l4.9,5.3c0.3,0.4,0.8,0.6,1.3,0.6
	l2.2-0.1c1.7-0.1,1.8-0.1,2-1.6s1.3-3.9,2.4-5.1c1.2-1.4,4.2-3.3,6-3.8c6.3-1.5,12.8,2.6,13.9,8.8l0.1,0.2c0.2,0.8,0.8,1.4,1.7,1.4
	h30.2c0.7,0,1.4-0.5,1.6-1.2l0.5-1.4c1-2.9,1.5-3.7,3.5-5.4c2.2-1.9,3.8-2.6,6.4-2.8c5.8-0.5,10.9,3.5,12.2,9.2
	c0.3,1.4,0.4,1.5,1.6,1.4c0.9-0.1,1.6-0.4,2.4-1.3l0.6-0.7c0.3-0.3,0.4-0.7,0.4-1.2L96.4,54.1z M29.9,46.3c-0.5,0.5-1.9,0.6-8.7,0.6
	c-7.6,0-8.2-0.1-8.9-0.7c-0.4-0.4-0.7-1.1-0.7-1.5s0.9-3.3,2.1-6.4c2.6-7.3,3.1-8.5,3.7-8.8c0.3-0.2,3.1-0.3,6.4-0.3
	c5,0,6,0.1,6.4,0.6s0.6,2.3,0.6,7.1C31,43.7,30.8,45.4,29.9,46.3z M49.5,46.2c-0.6,0.5-1.7,0.6-7.9,0.6c-6.9,0-7.2-0.1-7.9-0.8
	C33,45.3,33,44.5,33,37.6c0-7.1,0.1-7.6,0.7-8.1c0.6-0.4,2-0.5,6.1-0.5c2.9,0,5.5,0.2,5.8,0.3c0.6,0.4,4.6,13.4,4.6,15
	C50.2,45.1,50,45.9,49.5,46.2z"/>
<circle id="XMLID_1_" class="st0" cx="24.3" cy="65.7" r="9.2"/>
<circle id="XMLID_3_" class="st0" cx="80.1" cy="65.7" r="9.2"/>
</svg>
