
<svg version="1.1" id="Layer_1" xmlns="http://www.w3.org/2000/svg" xmlns:xlink="http://www.w3.org/1999/xlink" x="0px" y="0px"
	 viewBox="0 0 100 100" style="enable-background:new 0 0 100 100;" xml:space="preserve">
<g id="TyreBack">
	<ellipse id="XMLID_31_" cx="80.6" cy="65.5" rx="10" ry="9"/>
</g>
<g id="TyreFront">
	<ellipse id="XMLID_30_" cx="24.2" cy="65.3" rx="10" ry="9"/>
</g>
<g id="Van">
	<path d="M89.7,26c-0.5-0.3-13.3-0.4-38.6-0.4c0,0-37.1,0.5-37.5,0.5c-2,0-0.3,3,0.2,3.3s0.6,7.4-1.1,11.9C12.6,41.5,4.8,49,4.8,49
		c-0.2,0.2-1.3,4.8-2,7.6c-0.3,1.4,0,2.9,1,4c1.8,2.1,7.3,5.1,7.3,5.1c1.7-0.1,0.5-10.2,12.4-10.2c14.3,0,12.8,10,13.7,10h30.2
		c0.7,0,1.1-10,12.6-10c13.1,0,12,9.9,13.2,9.8c0.9-0.1,4.1-18.1,4.1-18.2C97.2,47.2,90.7,26.5,89.7,26z M30.9,40
		c0,0.8-0.8,1.5-1.7,1.5H17c-1.2,0-2-1.1-1.6-2.1l3.3-7.8c0.2-0.5,12.1-1,12.1-0.1V40H30.9L30.9,40z M39.2,41.5h-6.1
		c-0.5,0-0.8-0.7-0.8-1.5v-8.4c0-0.9,6-0.4,6.1,0.1l1.7,7.8C40.2,40.5,39.8,41.5,39.2,41.5z"/>
</g>
</svg>
