
<svg version="1.1" id="Layer_1" xmlns="http://www.w3.org/2000/svg" xmlns:xlink="http://www.w3.org/1999/xlink" x="0px" y="0px"
	 viewBox="75 75 100 100" style="enable-background:new 75 75 100 100;" xml:space="preserve">
<style type="text/css">
	.st0{fill:#020202;}
</style>
<path id="XMLID_21_" class="st0" d="M171.4,135.1c0,0,0.9-7.1,0.9-7.2l-3.3-9.9c-2.6-9-3.2-10.7-4.3-11.3
	c-0.5-0.3-13.3-0.4-38.6-0.4H89.8c-0.5,0-0.9,0.2-1.2,0.5c-0.3,0.3-0.5,0.7-0.5,1.2c0,1.3,0.2,1.8,0.7,2.1c0.5,0.3,0.7,0.8,0.7,1.5
	c0,0.6-1.3,4.7-3,9.2c-0.1,0.2-0.2,0.5-0.4,0.6l-8.4,8.3c-0.3,0.3-0.5,0.8-0.5,1.2l0.1,8.5c0,0.4,0.2,0.8,0.4,1.2l4.9,5.3
	c0.3,0.4,0.8,0.6,1.3,0.6l2.2-0.1c1.7-0.1,1.8-0.1,2-1.6c0.2-1.5,1.3-3.9,2.4-5.1c1.2-1.4,4.2-3.3,6-3.8c6.3-1.5,12.8,2.6,13.9,8.8
	l0.1,0.2c0.2,0.8,0.8,1.4,1.7,1.4h30.2c0.7,0,1.4-0.5,1.6-1.2l0.5-1.4c1-2.9,1.5-3.7,3.5-5.4c2.2-1.9,3.8-2.6,6.4-2.8
	c5.8-0.5,10.9,3.5,12.2,9.2c0.3,1.4,0.4,1.5,1.6,1.4c0.9-0.1,1.6-0.4,2.4-1.3l0.6-0.7c0.3-0.3,0.4-0.7,0.4-1.2L171.4,135.1z
	 M104.9,127.3c-0.5,0.5-1.9,0.6-8.7,0.6c-7.6,0-8.2-0.1-8.9-0.7c-0.4-0.4-0.7-1.1-0.7-1.5c0-0.4,0.9-3.3,2.1-6.4
	c2.6-7.3,3.1-8.5,3.7-8.8c0.3-0.2,3.1-0.3,6.4-0.3c5,0,6,0.1,6.4,0.6c0.4,0.5,0.6,2.3,0.6,7.1C106,124.7,105.8,126.4,104.9,127.3z
	 M124.5,127.2c-0.6,0.5-1.7,0.6-7.9,0.6c-6.9,0-7.2-0.1-7.9-0.8c-0.7-0.7-0.7-1.5-0.7-8.4c0-7.1,0.1-7.6,0.7-8.1
	c0.6-0.4,2-0.5,6.1-0.5c2.9,0,5.5,0.2,5.8,0.3c0.6,0.4,4.6,13.4,4.6,15C125.2,126.1,125,126.9,124.5,127.2z"/>
<circle id="XMLID_1_" class="st0" cx="99.3" cy="146.7" r="9.2"/>
<circle id="XMLID_3_" class="st0" cx="155.1" cy="146.7" r="9.2"/>
</svg>
