<?xml version="1.0" encoding="utf-8"?>

<svg version="1.1" id="Layer_1" xmlns="http://www.w3.org/2000/svg" xmlns:xlink="http://www.w3.org/1999/xlink" x="0px" y="0px"
	 viewBox="0 0 100 100" style="enable-background:new 0 0 100 100;" xml:space="preserve">
<style type="text/css">
	.st0{fill:#010101;}
</style>
<circle id="XMLID_2_" class="st0" cx="50" cy="8.8" r="6.8"/>
<path id="XMLID_3_" class="st0" d="M59.9,30.1c0.6,1.2,1.1,2.6,1.8,3.7c3.7,6,3.9,12,0.6,18.2c-0.6,1.1-0.9,2.5-0.9,3.7
	c-0.2,6.5-0.2,13.1-0.3,19.6c-0.2,5.5-0.5,11.1-0.9,16.6c-0.2,2.6-0.9,5.4-4.3,5.1c-3.6-0.3-4.1-2.4-4.2-5.1
	c-0.3-10.1-0.5-20.3-0.7-30.4c0-0.7-0.5-1.5-0.8-2.2C49.8,60,49,60.7,49,61.5c-0.3,9.9-0.4,19.8-0.7,29.7c-0.1,1.2,0.2,6.8-5.1,5.7
	c-2-0.1-3.2-1.7-3.4-3.8c-0.2-1.8-0.1-3.5-0.1-5.3c-0.4-10.9-0.8-21.8-1.3-32.7c-0.1-1.1-0.4-2.1-0.9-3c-3.3-6.1-2.9-12.2,0.6-18
	c0.5-0.8,1.1-1.7,1.4-2.5c0.2-0.5-0.2-1.1-0.3-1.7c-0.5,0.2-1.3,0.3-1.6,0.7c-5.2,7-2.2,23-2.2,23.2c0,1.3-1.2,2.4-2.6,2.2
	c-0.4-0.1-0.8-0.2-1.1-0.4c-0.7-0.5-1-2-1-3c-0.1-8.4-0.1-16.7,0-25.1c0.1-6.7,3.6-10.3,10.3-10.3c6.4-0.1,12.8-0.1,19.2,0.1
	c5,0.1,9,4.2,9,9.2c0.1,8.8,0.1,17.5-0.1,26.3c0,1.1,0,2.1-0.9,2.8c-0.2,0.2-1.3,0.6-1.8,0.5c-1.3-0.2-2.2-1.3-2-2.5
	c0-0.2,3.1-15.9-2.2-22.9c-0.4-0.5-1.2-0.6-1.8-1L59.9,30.1z"/>
</svg>
