
<svg version="1.1" id="Layer_1" xmlns="http://www.w3.org/2000/svg" xmlns:xlink="http://www.w3.org/1999/xlink" x="0px" y="0px"
	 viewBox="75 75 100 100" style="enable-background:new 75 75 100 100;" xml:space="preserve">
<circle id="XMLID_2_" cx="124.2" cy="83.7" r="7"/>
<path id="XMLID_4_" d="M143,96.7c-1.2-3.1-3.4-4.9-7-4.8c-7.4,0.1-14.8,0-22.2,0.1c-5.2,0.1-8.4,3.2-8.4,8.4
	c-0.1,5.1,0.8,14.3,1.8,21.5v7.9c0,1.4,0.8,2.4,1.9,2.4c1,0,1.9-1.1,1.9-2.4l0.1-5.9c0.5-5.3,0.8-13.6,0.8-16.7c0-1.2-0.7-3,1.7-2.9
	c2.3,0.1,1.6,1.9,1.6,3c0.1,9.9,0,19.8,0,29.7c0,3.9,0,7.9,0,11.8c0,6.3,0,12.6,0,18.8c0,2.3,1.3,3.8,3.4,4.1c2,0.3,3.3-1.2,4-2.9
	c0.3-0.7,0.2-1.6,0.2-2.4c0-11.5,0-23,0-34.5c0-1.5,0.1-2.6,2.1-2.6s2.2,1.1,2.1,2.7c-0.1,3.5,0,7.1,0,10.6c0,8.3,0,16.6,0,24.9
	c0,2.3,1.4,4,3.4,4.3c2,0.3,3.4-0.8,4.2-2.6c0.4-0.8,0.3-1.9,0.3-2.8c0-18.7,0-37.4,0-56c0-1.5-0.1-3,0-4.6c0.1-1.4,1.7-2.3,2.7-1.4
	c0.5,0.4,0.4,1.4,0.6,2.2c1,4.4,0.5,11.2,1.3,16.9v6.3c0,1.4,0.8,2.4,1.9,2.4c1,0,1.9-1.1,1.9-2.4v-6.5c0.8-6.7,0.8-15.1,0.8-20.2
	C143.8,100.9,143.7,98.6,143,96.7z"/>
</svg>
