
<svg version="1.1" id="Layer_1" xmlns="http://www.w3.org/2000/svg" xmlns:xlink="http://www.w3.org/1999/xlink" x="0px" y="0px"
	 viewBox="75 75 100 100" style="enable-background:new 75 75 100 100;" xml:space="preserve">
<path id="XMLID_1_" d="M115,104.7c-1.8,0.1-1.5,1.4-1.5,2.5l-0.1,22.3l-1.1,1.4h-2.5l-1-1.5l-0.1-28.8c-0.1-3.3,1.6-5.8,3.8-8
	c0.8-0.8,2.4-1,3.7-1c5.6-0.1,11.3,0.3,17-0.1c5.1-0.3,7.3,3.4,7.7,7.1c0.4,3.5,0.4,28.6,0.4,30.5l-1,1.5l-2.8,0.2l-1-1.6
	c0-1.9-0.1-16.5-0.1-21.9c0-1.2,0.4-2.7-1.6-2.6c-1.8,0.1-1.4,1.5-1.4,2.5l-0.1,61.9l-1.6,2.3l-3.2,0.1l-1.5-2.3l-0.2-36.2
	c0-0.9-0.3-2.1-0.8-2.5c-1.4-1-2.7,0-2.7,2v36.7l-1.7,2.4h-3.3l-1.6-2.4v-31c0-10.3,0-20.6,0-31C116.7,106,116.9,104.6,115,104.7z"
	/>
<circle id="XMLID_2_" cx="125" cy="83.9" r="7.2"/>
</svg>
