<?xml version="1.0" encoding="utf-8"?>
<svg version="1.1" id="Layer_1" xmlns="http://www.w3.org/2000/svg" xmlns:xlink="http://www.w3.org/1999/xlink" x="0px" y="0px"
	 viewBox="0 0 100 100" style="enable-background:new 0 0 100 100;" xml:space="preserve">
<style type="text/css">
	.st0{fill:#010101;}
</style>
<path id="XMLID_1_" class="st0" d="M40,30.7c-1.8,0.1-1.5,1.4-1.5,2.5l-0.1,22.3l-1.1,1.4h-2.5l-1-1.5l-0.1-28.8
	c-0.1-3.3,1.6-5.8,3.8-8c0.8-0.8,2.4-1,3.7-1c5.6-0.1,11.3,0.3,17-0.1c5.1-0.3,7.3,3.4,7.7,7.1c0.4,3.5,0.4,28.6,0.4,30.5l-1,1.5
	l-2.8,0.2l-1-1.6c0-1.9-0.1-16.5-0.1-21.9c0-1.2,0.4-2.7-1.6-2.6c-1.8,0.1-1.4,1.5-1.4,2.5l-0.1,61.9l-1.6,2.3l-3.2,0.1L52,95.2
	L51.8,59c0-0.9-0.3-2.1-0.8-2.5c-1.4-1-2.7,0-2.7,2v36.7l-1.7,2.4h-3.3l-1.6-2.4v-31c0-10.3,0-20.6,0-31C41.7,32,41.9,30.6,40,30.7z
	"/>
<circle id="XMLID_2_" class="st0" cx="50" cy="9.9" r="7.2"/>
</svg>
