<?xml version="1.0" encoding="utf-8"?>
<svg version="1.1" id="Layer_1" xmlns="http://www.w3.org/2000/svg" xmlns:xlink="http://www.w3.org/1999/xlink" x="0px" y="0px"
	 viewBox="0 0 100 100" style="enable-background:new 0 0 100 100;" xml:space="preserve">
<style type="text/css">
	.st0{fill:#010101;}
</style>
<circle id="XMLID_2_" class="st0" cx="49.6" cy="8.4" r="6.4"/>
<path id="XMLID_4_" class="st0" d="M72.7,40.4c-4.1-8.1-11-20.7-13.2-23.8c-1.1-1.4-2.6-1.1-3.9,0.2c-3.5,3.2-6.9,3.5-10.7,0.7
	c-2.1-1.6-3.8-1.4-5.5,0.3c-1.5,1.6-10,18.4-13.3,26.3l-1.6,2.7c-0.3,0.6-0.1,1.2,0.4,1.6l0,0c0.6,0.3,1.2,0.1,1.6-0.4l3.3-5.6
	c4.2-5.6,9.8-13.3,10.8-14.8c1.6,4.2,0.9,10.4-0.5,15.1c-0.9,2.9-2,6-2,9c-0.1,4,1.2,8,1.3,12.1c0.2,9.3,0.1,18.6,0.1,27.9
	c0,3.3,1.5,5.4,4.1,5.5c2.7,0.1,4.2-1.8,4.2-5.3c0.2-11.8,0.3-23.6,0.4-35.4c0-1.4,0.2-2.4,2-2.5s2.2,0.8,2.2,2.5
	c-0.1,4.9,0.1,9.8,0.1,14.7c0.1,7.1,0.1,14.3,0.2,21.4c0.1,2.7,1.9,4.6,4.3,4.5c2.3-0.1,3.8-1.8,4-4.5c0.1-0.9,0-1.8,0-2.7
	c0-7.2,0.1-14.4,0.1-21.7c0-5.4,2.2-11,2.1-16.4c-0.1-4.8-2.3-9.5-3.7-14.2c-0.8-2.7-0.1-5.9-0.1-8.9l0.8-0.3
	c0.6,0.7,7.2,9.3,11.8,14.9l2.7,4.6c0.3,0.6,1,0.7,1.6,0.4l0,0c0.6-0.3,0.7-1,0.4-1.6L72.7,40.4z"/>
</svg>
