
<svg version="1.1" id="Layer_1" xmlns="http://www.w3.org/2000/svg" xmlns:xlink="http://www.w3.org/1999/xlink" x="0px" y="0px"
	 viewBox="75 75 100 100" style="enable-background:new 75 75 100 100;" xml:space="preserve">
<circle id="XMLID_2_" cx="123.6" cy="84.2" r="6.2"/>
<path id="XMLID_3_" d="M112,105.7c-2.9,1.8-12.9,19.2-14.8,17.7c-1.9-1.4,5.3-16.9,9-22.5c2.1-3.1,5-5.7,7.6-8.4
	c1.3-1.4,2.7-1.2,4.1,0.2c3.6,3.4,7,3.5,10.7,0.1c1.8-1.7,3.2-1.3,4.8,0.1c4,3.3,7.3,7.1,9.3,11.8c1.9,4.7,8.6,17.6,6.3,19
	c-1.8,1.1-9.2-11.5-12.8-16.1c-0.5-0.6-1.1-1.2-1.6-1.9c-0.2,0.2-0.5,0.3-0.7,0.4c0.3,0.7,0.5,1.4,0.9,2c4.2,6.4,4.8,13.1,1.4,20.1
	c-0.6,1.1-0.6,2.2-0.7,3.5c-0.5,11.7-1,23.9-1.6,35.7c-0.2,4-1.5,5.6-4.3,5.6c-2.7,0.1-4.4-1.6-4.4-4.3c-0.3-10.3-0.4-20.6-0.7-30.8
	c0-0.8-0.6-1.7-0.9-2.5c-0.4,0.9-1.3,1.7-1.3,2.6c-0.3,9.6-0.4,19.2-0.6,28.8c0,0.7-0.1,1.3-0.2,2c-0.6,2.9-1.1,4.3-5,4.3
	c-2.5,0-3.6-2.1-3.6-5c-0.2-7.5-1.9-33-2.2-37.4c-0.1-0.9-0.1-1.9-0.5-2.7c-2.8-6.5-2.7-12.7,1.5-18.6c0.6-0.9,0.8-2.1,1.2-3.3
	C112.5,105.9,112.2,105.8,112,105.7z"/>
</svg>
