<?xml version="1.0" encoding="utf-8"?>

<svg version="1.1" id="Layer_1" xmlns="http://www.w3.org/2000/svg" xmlns:xlink="http://www.w3.org/1999/xlink" x="0px" y="0px"
	 viewBox="0 0 100 100" style="enable-background:new 0 0 100 100;" xml:space="preserve">
<style type="text/css">
	.st0{fill:#010101;}
</style>
<path id="Bark" class="st0" d="M65.7,55.1c-0.1,0.3-0.3,0.6-0.6,1c-3.1,4-7.3,6.8-12.2,8.2c-2.1,0.6-2.9,0.3-3-1.6V41l-6.3-0.3v29.2
	c-0.4,1.1-1.3,1-3.1,0.2c-3.1-1.4-5.1-4-7.2-6.6c-0.3-0.3-0.5-0.6-0.6-0.9c0,0-0.1,0-0.2,0c-0.6-0.2-1.1-0.1-1.7-0.1
	c2.7,4.4,6.2,7.9,11.2,9.7c0.9,0.3,1.4,0.7,1.6,1.3V97h6.3V84.8c0-0.2,0-0.5,0-0.7V68c0.1-0.9,0.5-1.5,1.8-1.8
	c6.3-1.2,11.4-4.4,15-9.7C66.5,56,66.2,55.5,65.7,55.1z"/>
<path class="st0" d="M37,52.6c0-1.6-1.1-2.9-2.5-3.1c-0.3-1.2-1.2-2-2.4-2.2c-0.5-0.9-1.4-1.5-2.5-1.5c-0.5,0-0.9,0.1-1.3,0.4
	c-0.3-0.3-0.7-0.5-1.2-0.5c-0.4,0-0.8,0.2-1.1,0.4c-0.5-0.6-1.2-0.9-2-0.9c-1.2,0-2.2,0.8-2.6,1.9c-0.3-0.2-0.6-0.3-1-0.3
	c-0.9,0-1.7,0.7-1.7,1.6c0,0.1,0,0.3,0,0.4c-1.4,0.1-2.5,1.5-2.5,3.1c0,0.5,0.1,0.9,0.3,1.3c-0.6,0.3-0.9,0.8-0.9,1.4
	c0,0.5,0.2,1,0.6,1.2c-0.2,0.4-0.3,0.9-0.3,1.3c0,1.6,1.2,3,2.6,3.1l0,0c0,0.9,0.7,1.6,1.7,1.6c0.1,0,0.3,0,0.4,0
	c0.5,1.1,1.4,1.8,2.6,1.8c0.4,0,0.8-0.1,1.2-0.3c0.3,0.4,0.8,0.7,1.3,0.7s0.9-0.2,1.2-0.5c0.3,0.6,1,1.1,1.8,1.1s1.4-0.4,1.8-1
	c0.3,0.1,0.7,0.3,1.2,0.3c1.6,0,2.9-1.4,2.9-3.1c0-0.2,0-0.3,0-0.5c1.4-0.2,2.5-1.5,2.5-3.1c0-0.9-0.4-1.8-1-2.3
	C36.6,54.4,37,53.5,37,52.6z"/>
<path class="st0" d="M86.1,52.4c-0.1-0.6-0.4-1-0.7-1.4c0.4-0.5,0.6-1.2,0.6-1.9c0-1-0.4-1.9-1.1-2.4c0.1-0.3,0.2-0.7,0.2-1.1
	c0-1.4-0.9-2.6-2-3c-0.2-0.5-0.5-1-0.9-1.3c0-1.6-1.2-2.9-2.6-3.1c-0.3-0.6-0.9-1-1.6-1c-0.2,0-0.4,0-0.6,0.1
	c-0.5-0.9-1.4-1.5-2.5-1.5c-0.6,0-1.2,0.2-1.7,0.6c-0.1,0-0.2,0-0.3,0c-0.3,0-0.6,0.1-0.8,0.2c-0.5-0.3-1-0.5-1.6-0.5
	c-1.1,0-1.9,0.6-2.5,1.5c-0.1,0-0.3,0.1-0.5,0.2c-0.3-0.1-0.7-0.2-1.1-0.2c-1.5,0-2.7,1.2-2.8,2.8c-1.3,0.2-2.3,1.4-2.4,2.9
	c-1.1,0.5-1.8,1.6-1.8,2.9c0,0.3,0,0.7,0.1,1c-0.8,0.6-1.4,1.5-1.4,2.6c0,1.3,0.8,2.5,1.9,2.9l0,0c0,1.7,1.3,3.1,2.9,3.1h0.2
	c0.2,0.4,0.4,0.7,0.7,1c0.3,1.4,1.4,2.5,2.8,2.5c0.3,0,0.5,0,0.7-0.1c0,0.9,0.7,1.7,1.5,1.7c0.4,0,0.7-0.2,1-0.5
	c0.1,0.2,0.3,0.4,0.5,0.5c0,0,0.1,0.1,0.1,0.2c0.2,0,0.3,0,0.5,0c0.8,0,1.6-0.4,2.1-1c0.5,0.5,1.2,0.8,1.9,0.8
	c0.6,0,1.2-0.2,1.7-0.6c0.1,0,0.2,0,0.4,0c0.6,0,1.2-0.2,1.6-0.6c0.2,0,0.5,0.1,0.7,0.1c1.3,0,2.4-1,2.7-2.3
	c0.9-0.1,1.5-0.8,1.6-1.7c0.8-0.2,1.5-0.9,1.5-1.8c0-0.1,0-0.2,0-0.3C85.7,53.6,86.1,53.1,86.1,52.4z"/>
<path class="st0" d="M68,24.7c0-0.7-0.2-1.3-0.6-1.8c0.2-0.5,0.4-1,0.4-1.6c0-1.2-0.7-2.3-1.7-2.8c0-0.1,0-0.2-0.1-0.2
	c0.1-0.4,0.2-0.8,0.2-1.2c0-0.6-0.1-1.1-0.4-1.5c0-0.2,0.1-0.5,0.1-0.7c0-1.7-1.3-3.1-2.9-3.1h-0.1c-0.1-0.1-0.3-0.2-0.4-0.3
	c0,0,0-0.1,0-0.2c0-1.3-0.7-2.4-1.8-2.8c-0.4-0.6-0.9-1-1.5-1.2c-0.4-1.2-1.4-2.2-2.7-2.2c-0.5,0-0.9,0.1-1.2,0.3
	c-0.3-1.3-1.4-2.3-2.8-2.3c-0.6,0-1.2,0.2-1.8,0.6c-0.5-1-1.4-1.8-2.5-1.8c-0.9,0-1.8,0.5-2.3,1.2C45.4,2.4,44.6,2,43.7,2
	c-0.6,0-1.2,0.2-1.7,0.6c-0.1,0-0.2,0-0.3,0c-0.6,0-1.1,0.2-1.6,0.5c-0.3-0.1-0.6-0.2-1-0.2c-1.2,0-2.2,0.8-2.6,1.9
	c-0.2,0.1-0.4,0.3-0.6,0.6c-0.4-0.2-0.7-0.3-1.2-0.3c-1.3,0-2.4,0.9-2.7,2.2c-0.5,0.3-0.8,0.8-1.1,1.3c-0.1,0-0.2,0-0.3,0
	c-1.6,0-2.9,1.4-2.9,3.1c0,0.6,0.1,1.1,0.4,1.5c-1.6,0-2.9,1.4-2.9,3.1c0,0.6,0.2,1.2,0.5,1.7c-0.1,0.4-0.2,0.8-0.2,1.2
	c0,0.2,0,0.4,0,0.6c-0.6,0.6-0.9,1.3-0.9,2.2c0,0.9,0.3,1.7,0.9,2.2c-0.9,0.5-1.5,1.5-1.5,2.7c0,1.3,0.8,2.5,1.9,2.9
	c0,0.2-0.1,0.5-0.1,0.8c0,0.9,0.4,1.7,0.9,2.3c0.2,0.9,0.8,1.7,1.5,2V35c0,1.7,1.3,3.1,2.9,3.1c0.3,0,0.6,0,0.8-0.1
	c0.5,1.1,1.4,1.8,2.6,1.8c0.2,0,0.5,0,0.7-0.1c0.5,0.8,1.3,1.3,2.3,1.3c0.2,0,0.4,0,0.6-0.1c0.5,1,1.4,1.8,2.5,1.8
	c0.9,0,1.7-0.4,2.2-1.1c0,0.1,0.1,0.2,0.2,0.3c0.1,0.7,0.8,1.3,1.6,1.3c0.7,0,1.3-0.4,1.6-1h0.1c0,0.1,0,0.2,0,0.3
	c0,0.7,0.7,1.3,1.6,1.3s1.6-0.6,1.6-1.3v-0.1c0.5,0.4,1,0.6,1.7,0.6c1.4,0,2.6-1.2,2.8-2.7c0.3,0.1,0.6,0.2,1,0.2
	c1.4,0,2.5-1.1,2.8-2.5c0,0,0.1-0.1,0.2-0.1s0.1,0,0.1,0c1.3,0,2.4-0.9,2.7-2.2c0.3-0.2,0.5-0.5,0.8-0.7l0,0c1.6,0,2.9-1.4,2.9-3.1
	c0-0.2,0-0.4,0-0.6c1.4-0.2,2.5-1.5,2.5-3.1c0-0.5-0.1-1-0.3-1.4C67.5,26.5,68,25.6,68,24.7z"/>
</svg>
