
<svg version="1.1" id="Layer_1" xmlns="http://www.w3.org/2000/svg" xmlns:xlink="http://www.w3.org/1999/xlink" x="0px" y="0px"
	 viewBox="0 0 100 100" style="enable-background:new 0 0 100 100;" xml:space="preserve">
<g id="Bark">
	<path d="M56.3,60.2c0.3,15,2.5,30.6,2.5,30.6h-8.1c0,0,1.2-15.1,1.6-30.2c0-0.1,0-0.3,0-0.4c0.2-13.8-2.9-27.6-2.9-27.6H55
		C54.9,32.6,56.1,46.1,56.3,60.2z"/>
</g>
<g id="Branch">
	<path d="M58.9,32c0.5-0.1,9.8-0.2,13.4,10.8c0.1,0.2,0.1,0.4,0.2,0.6c3.7,12-8.4,18.2-8.4,18.2c-1.6-22-11.3-26.7-11.3-26.7
		c-0.6-0.3-1.5-0.3-2.1,0c0,0-9.8,4.7-11.3,26.7c0,0-12.1-6.2-8.4-18.2c0.1-0.2,0.1-0.4,0.2-0.6c3.5-11,12.2-10.9,12.7-10.8
		c-0.6-0.3-16.1-4.8-24.1,5.8c0,0,0.7-13.9,11.3-14.6l10.7-0.7c0,0-2.5-3.4-6.9-5.7c-3.5-1.8-9.1-2.6-9.1-2.6S41-0.6,50.6,17.1
		c1.3,2.4,0.5,3.2,2.1,0c8.8-18.1,24.9-2.9,24.9-2.9S72,15,68.5,16.8c-4.4,2.3-7,5.7-7,5.7l10.7,0.7C83,23.9,83.6,37.8,83.6,37.8
		C75.8,27.4,59.5,31.7,58.9,32z"/>
</g>
</svg>
