<?xml version="1.0" encoding="utf-8"?>

<svg version="1.1" id="Layer_1" xmlns="http://www.w3.org/2000/svg" xmlns:xlink="http://www.w3.org/1999/xlink" x="0px" y="0px"
	 viewBox="0 0 100 100" style="enable-background:new 0 0 100 100;" xml:space="preserve">
<style type="text/css">
	.st0{fill:#010101;}
</style>
<path id="Bark" class="st0" d="M48.1,29.3L48.1,29.3c0,0.4,0,0.8,0,1.2V90c0,0.2,0,0.5,0,0.7l-0.2,7.2h5.6l0.2-6.7
	c0.1-0.6,0.1-1.1,0.1-1.6c0-19.9,0-39.8,0-59.7c0-0.1,0-0.3,0-0.6C54,29.3,48.1,29.3,48.1,29.3z"/>
<path class="st0" d="M83.3,26.7c-1.5-5.2-9.5-13.5-15-11.9c-1,0-5.4,1.7-6.4,1.8c0,0,2.6-5.1,4.9-7C69.9,7,77,7.2,77,7.2
	C70.9,2.8,60.8,2,54.5,7.4c-1.6,1.4-2.8,2.8-3.8,4.5c-1.6-2.7-4-5-6.8-6.7C36.7,1,28.2,2.4,24.1,8.5c0,0,4.5,0.3,7.4,2
	c3,1.7,9.9,6,9.9,6c-0.4,0-6.2-1.2-6.6-1.2c-3.5-0.1-6.8,1-9.4,2.8c-5.8,3.1-9,8.9-7.8,14.9v0.1l0,0c0,0,3.5-4.2,8.3-5.7
	c0,0,0.1,0,0.2,0c5.9-1.7,16.7-1,16.7-1c-3.1,2.1-8.8,5.5-10,9.5c-0.2,0.6-0.3,1.1-0.4,1.7c-2.3,7.9,0.8,12.4,7.6,15
	c0,0,0.5-7.5,2.7-14.9c1.4-4.6,5.3-8.4,5.6-8.4h3.4c1.3,0,9.2,5.5,10.1,9.9c1.4,6.8-1.6,12-1.6,12C67,48,72.9,43.5,71.3,35.3
	c-1-4.9-3.7-8.8-7.4-11c2,0.4,4.8-0.8,8.1,0.8c5.2,2.4,11.2,7.6,12.3,8.5c0.2-0.1,0.4-0.1,0.6-0.2C84.3,31.2,83.9,29,83.3,26.7z"/>
</svg>
