
<svg version="1.1" id="Layer_1" xmlns="http://www.w3.org/2000/svg" xmlns:xlink="http://www.w3.org/1999/xlink" x="0px" y="0px"
	 viewBox="75 75 100 100" style="enable-background:new 75 75 100 100;" xml:space="preserve">
<path id="Bark" d="M122.1,104.3L122.1,104.3c0,0.4,0,0.8,0,1.2V165c0,0.2,0,0.5,0,0.7l-0.2,7.2h5.6l0.2-6.7c0.1-0.6,0.1-1.1,0.1-1.6
	c0-19.9,0-39.8,0-59.7c0-0.1,0-0.3,0-0.6C128,104.3,122.1,104.3,122.1,104.3z"/>
<path d="M157.3,101.7c-1.5-5.2-9.5-13.5-15-11.9c-1,0-5.4,1.7-6.4,1.8c0,0,2.6-5.1,4.9-7c3.1-2.6,10.2-2.4,10.2-2.4
	c-6.1-4.4-16.2-5.2-22.5,0.2c-1.6,1.4-2.8,2.8-3.8,4.5c-1.6-2.7-4-5-6.8-6.7c-7.2-4.2-15.7-2.8-19.8,3.3c0,0,4.5,0.3,7.4,2
	c3,1.7,9.9,6,9.9,6c-0.4,0-6.2-1.2-6.6-1.2c-3.5-0.1-6.8,1-9.4,2.8c-5.8,3.1-9,8.9-7.8,14.9v0.1c0,0,0,0,0,0c0,0,3.5-4.2,8.3-5.7
	c0,0,0.1,0,0.2,0c5.9-1.7,16.7-1,16.7-1c-3.1,2.1-8.8,5.5-10,9.5c-0.2,0.6-0.3,1.1-0.4,1.7c-2.3,7.9,0.8,12.4,7.6,15
	c0,0,0.5-7.5,2.7-14.9c1.4-4.6,5.3-8.4,5.6-8.4h3.4c1.3,0,9.2,5.5,10.1,9.9c1.4,6.8-1.6,12-1.6,12c6.8-3.2,12.7-7.7,11.1-15.9
	c-1-4.9-3.7-8.8-7.4-11c2,0.4,4.8-0.8,8.1,0.8c5.2,2.4,11.2,7.6,12.3,8.5c0.2-0.1,0.4-0.1,0.6-0.2
	C158.3,106.2,157.9,104,157.3,101.7z"/>
</svg>
