
<svg version="1.1" id="Layer_1" xmlns="http://www.w3.org/2000/svg" xmlns:xlink="http://www.w3.org/1999/xlink" x="0px" y="0px"
	 viewBox="0 0 100 100" style="enable-background:new 0 0 100 100;" xml:space="preserve">
<g id="Bark">
	<polygon id="XMLID_34_" points="66.7,57.4 56.3,65.6 55.6,41 72,26.3 70,24 55.5,37 55.4,21.5 49.7,21.5 49.5,44.7 29,34 
		27.6,36.8 49.4,48 49.2,58.7 38.5,50.5 36.6,53 49.1,62.4 48.4,97.6 57,97.6 56.3,69.3 68.6,59.8 	"/>
</g>
<g id="B5">
	<path id="XMLID_38_" d="M84.2,53.9c0.2-0.4,0.4-0.9,0.4-1.4v-0.1c0-1.4-1-2.6-2.3-2.9v-0.1c0-1.7-1.3-3-3-3c-0.7,0-1.3,0.2-1.8,0.6
		c-0.3-1.3-1.5-2.3-2.9-2.3s-2.6,1-2.9,2.3c-0.3-0.1-0.7-0.2-1-0.2c-1.3,0-2.4,0.8-2.9,2c-0.1,0-0.2,0-0.3,0c-1.7,0-3,1.3-3,3v0.1
		c0,0.4,0.1,0.8,0.2,1.1c-1.2,0.4-2.1,1.5-2.1,2.9V56c0,1.5,1.1,2.8,2.6,3c0.3,1.1,0.8,2.2,1.5,3.1c0,0.1,0,0.3,0,0.4v0.1
		c0,1.3,0.8,2.4,1.9,2.8c0.5,1.1,1.5,1.9,2.8,1.9c0.4,0,0.8-0.1,1.2-0.3c0.5,0.7,1.4,1.1,2.3,1.1c1,0,1.8-0.5,2.4-1.1
		c0.5,0.3,1,0.4,1.5,0.4c1.7,0,3-1.3,3-3v-0.1v-0.1c1.6-0.1,2.7-1.4,2.7-3V61c0-0.5-0.1-1-0.3-1.4c1.1-0.4,1.9-1.5,1.9-2.8v-0.1
		C86,55.4,85.2,54.3,84.2,53.9z"/>
</g>
<g id="B4">
	<path id="XMLID_36_" d="M40.2,56.3c0.3-0.7,0.6-1.4,0.8-2.1c0.2-0.9,0.3-1.8,0.2-2.7c0.6-0.4,1-1,1.2-1.8v-0.1
		c0.4-1.6-0.7-3.2-2.3-3.6c-0.3,0-0.5-0.1-0.8-0.1c-0.1-1.3-1-2.4-2.3-2.7c-0.7-0.1-1.3-0.1-1.9,0.2c0,0-0.1-0.1-0.2-0.1
		c-0.4-0.8-1.1-1.6-2.1-1.8c-1.2-0.3-2.4,0.3-3.1,1.2c-0.4-0.3-0.8-0.5-1.2-0.6c-1.2-0.3-2.4,0.2-3.1,1.1C25.2,43.1,25,43,24.8,43
		c-1.6-0.4-3.2,0.7-3.6,2.3v0.1c-0.1,0.6,0,1.2,0.1,1.8c-0.7,0.4-1.2,1.1-1.4,1.9v0.1c-0.3,1.3,0.3,2.6,1.4,3.2
		c-0.7,0.4-1.3,1.1-1.5,2v0.1c-0.3,1.3,0.3,2.7,1.6,3.3c-0.2,1.4,0.7,2.8,2.1,3.3c0.2,1.2,1.1,2.2,2.4,2.5c1.1,0.3,2.2-0.2,2.9-1
		c0.4,0.6,1,1,1.8,1.2c1.1,0.3,2.2-0.2,2.9-1c0.4,0.3,0.8,0.5,1.2,0.6c1.4,0.3,2.9-0.5,3.5-1.8c1.4,0,2.7-1,2.9-2.4V59
		C41.4,58,41,57,40.2,56.3z"/>
</g>
<g id="B3">
	<path id="XMLID_37_" d="M89.5,18.6c0-1.3-0.8-2.4-1.9-2.8c-0.4-1.2-1.5-2.1-2.9-2.1c-0.3,0-0.6,0-0.9,0.1c-0.5-0.8-1.5-1.4-2.6-1.4
		c-0.6,0-1.1,0.2-1.6,0.5c-0.5-0.8-1.5-1.3-2.5-1.3c-1.3,0-2.4,0.8-2.8,1.9c-0.3-0.1-0.6-0.2-1-0.2c-1.1,0-2.1,0.6-2.6,1.5
		c-1.5,0.1-2.7,1.4-2.7,3v0.1c0,0.3,0.1,0.7,0.2,1c-1.1,0.5-1.8,1.5-1.8,2.7v0.1c0,1.6,1.3,2.9,2.9,3c0.3,0.9,0.6,1.8,1.1,2.6
		c-0.2,0.4-0.3,0.8-0.3,1.2v0.1c0,1.7,1.3,3,3,3c0.5,0,0.9-0.1,1.3-0.3c0.4,1.3,1.5,2.2,2.9,2.2c0.7,0,1.4-0.3,1.9-0.7
		c0.5,0.8,1.4,1.3,2.5,1.3c1.6,0,2.9-1.2,3-2.7c0.1,0,0.3,0,0.4,0c1.7,0,3-1.3,3-3v-0.1c0-0.4-0.1-0.8-0.2-1.1
		c0.7-0.5,1.2-1.4,1.2-2.4v-0.1c0-0.6-0.2-1.1-0.5-1.6c0.2-0.4,0.3-0.8,0.3-1.2v-0.1c0-0.4-0.1-0.7-0.2-1.1
		C89.2,20.2,89.6,19.5,89.5,18.6C89.6,18.6,89.5,18.6,89.5,18.6z"/>
</g>
<g id="B2">
	<path id="XMLID_35_" d="M31.8,28.4c0.5-0.5,0.8-1.3,0.8-2.1v-0.1c0-1.7-1.3-3-3-3V23v-0.1c0-1.7-1.3-3-3-3c-0.9,0-1.8,0.4-2.4,1.1
		c-0.5-0.9-1.5-1.5-2.6-1.5c-0.9,0-1.8,0.4-2.4,1.1c-0.4-0.3-0.9-0.4-1.4-0.4c-1.7,0-3,1.3-3,3v0.1C14.4,23.1,14,23,13.5,23
		c-1.7,0-3,1.3-3,3v0.2c0,1.1,0.5,1.9,1.3,2.5c-0.6,0.5-1.1,1.3-1.1,2.3v0.1c0,1.1,0.5,2,1.4,2.5c-0.3,0.5-0.4,1-0.4,1.5v0.1
		c0,1.5,1.1,2.7,2.5,3c0.1,1.6,1.4,2.9,3,2.9c1,0,1.9-0.5,2.4-1.3c0.5,0.6,1.3,0.9,2.2,0.9c0.8,0,1.4-0.3,1.9-0.7
		c0.5,0.5,1.3,0.9,2.1,0.9c1.7,0,3-1.3,3-3v-0.1c0-0.4-0.1-0.7-0.2-1.1c0.8-0.7,1.3-1.6,1.8-2.5c1.6,0,2.9-1.3,2.9-3v-0.1
		C33.7,29.9,32.9,28.8,31.8,28.4z"/>
</g>
<g id="B1">
	<path id="XMLID_39_" d="M65,11.3v-1c0-1.4-1.2-2.6-2.6-2.6h-0.7c-0.5-1.1-1.5-1.9-2.8-1.9c-0.4-1.2-1.5-2.1-2.9-2.1
		c-0.8,0-1.5,0.3-2,0.8c-0.2-0.1-0.5-0.2-0.7-0.2c-0.4-1.1-1.5-1.9-2.8-1.9c-1.4,0-2.7,1-2.9,2.4h-0.8c-0.7,0-1.3,0.3-1.7,0.7
		c-0.5-0.4-1.2-0.7-1.9-0.7c-1.4,0-2.7,1-2.9,2.4c-0.3-0.1-0.5-0.1-0.8-0.1c-1.6,0-3,1.3-3,3v0.1c0,0.9,0.4,1.6,1,2.2
		c-0.2,0.4-0.3,0.9-0.3,1.3v0.1c0,0.2,0,0.4,0,0.6c-0.5,0.5-0.9,1.3-0.9,2.1v0.1c0,1.6,1.3,3,3,3c0.3,0.5,0.8,1,1.3,1.3
		c-0.1,0.3-0.1,0.5-0.1,0.8v0.1c0,1.6,1.3,3,3,3c0.8,0,1.6-0.4,2.2-0.9c0.5,1,1.5,1.7,2.7,1.7c1,0,1.8-0.5,2.4-1.2
		c0.3,0,0.5,0,0.7,0c1.4,0,2.7-0.3,4-0.8c0.5,0.8,1.3,1.3,2.2,1.3h0.8c1.4,0,2.6-1.2,2.6-2.6v-1c0-0.2,0-0.3,0-0.5
		c0.1,0,0.3,0,0.4,0c1.6,0,3-1.3,3-3v-0.1c0-1.3-0.9-2.5-2.1-2.9c0.2-0.3,0.3-0.6,0.4-0.9C63.9,14,65,12.8,65,11.3z"/>
</g>
</svg>
