<?xml version="1.0" encoding="utf-8"?>

<svg version="1.1" id="Layer_1" xmlns="http://www.w3.org/2000/svg" xmlns:xlink="http://www.w3.org/1999/xlink" x="0px" y="0px"
	 viewBox="0 0 100 100" style="enable-background:new 0 0 100 100;" xml:space="preserve">
<style type="text/css">
	.st0{fill:#010101;}
</style>
<g id="Bark">
	<polygon class="st0" points="55.1,96.9 47.5,97 48.6,65.3 53.8,65.3 	"/>
</g>
<path class="st0" d="M69.3,61.3l-0.4-1.4l2.7-1.2l-3-1.9l-0.9-0.6l-0.4-1.3l2.7-1.2l-3-1.9l-0.9-0.6l-0.4-1.3l2.7-1.2l-3-1.9
	l-0.9-0.6l-0.4-1.3l2.7-1.2l-3-1.9l-0.9-0.6l-0.4-1.3l2.7-1.2l-3-1.9l-0.9-0.6l-0.4-1.3l2.7-1.2l-2.8-1.9l-0.9-0.6l-0.4-1.3l2.7-1.2
	l-3-1.9l-0.9-0.6l-0.4-1.3l2.7-1.2l-3-1.9l-0.9-0.6l-0.4-1.3l2.7-1.2l-3-1.9l-0.9-0.6l-0.4-1.3l2.7-1.2l-3-1.9l-0.9-0.6l-0.2-0.8
	l2.2-0.9l-1.7-1.1L52.6,6l-1.9-3.7L49.6,5l-0.9,2.3l0,0l-3.1,1.8l2.7,1.3L47,11.1l-3.1,1.8l3.2,1.6l0.2,0.1l-1.4,0.8L43,17l3.2,1.6
	h0.1l-2.2,1.3L41,21.7l2,1l-0.1,1l-0.8,0.5L39,26l3.2,1.6l0.3,0.1v0.1l-1.1,0.6l-3.1,1.8l3.2,1.6l0.6,0.3l0,0l-2.3,1.3l-3.1,1.8
	l3.2,1.6l0.5,0.3l-1.8,1l-3.1,1.8l3.1,1.5L37,42.3l-3.1,1.8l3.2,1.6l0.5,0.3l-1.8,1l-3.1,1.8l3.2,1.6l0.3,0.2l-0.1,0.5l-1.7,1
	l-2.8,1.6l3,1.4l-2,1.2l-2.8,1.6l3,1.4l0.8,0.1l-0.2,0.5L33.2,60l-3.4,1.2l2.8,2.1l2.4,1.8l-0.1,1.4l3.3-1.4l0.4-0.2l-0.1,1.6
	l3.2-1.4l-0.1,1.4l3.2-1.4l-0.1,1.4l3.1-1.3v0.1c0,0,0.1,0,0.2,0h5.8l0.4-0.1v0.1l0,0c0.6,0,0.6,0.9,0,0.9h-0.1v0.4l3.2-1.4
	l-0.1,1.4l3.2-1.4l-0.1,1.4l3.2-1.4l-0.1,1.4l3.3-1.4l3.3-1.4l1.7-0.8L69.3,61.3z M44,23l-0.4-0.3L44,23L44,23z"/>
</svg>
