
<svg version="1.1" id="Layer_1" xmlns="http://www.w3.org/2000/svg" xmlns:xlink="http://www.w3.org/1999/xlink" x="0px" y="0px"
	 viewBox="75 75 100 100" style="enable-background:new 75 75 100 100;" xml:space="preserve">
<g id="Bark">
	<polygon points="129.1,171.9 121.5,172 122.6,140.3 127.8,140.3 	"/>
</g>
<path d="M143.3,136.3l-0.4-1.4l2.7-1.2l-3-1.9l-0.9-0.6l-0.4-1.3l2.7-1.2l-3-1.9l-0.9-0.6l-0.4-1.3l2.7-1.2l-3-1.9l-0.9-0.6
	l-0.4-1.3l2.7-1.2l-3-1.9l-0.9-0.6l-0.4-1.3l2.7-1.2l-3-1.9l-0.9-0.6l-0.4-1.3l2.7-1.2l-2.8-1.9l-0.9-0.6l-0.4-1.3l2.7-1.2l-3-1.9
	l-0.9-0.6l-0.4-1.3l2.7-1.2l-3-1.9l-0.9-0.6l-0.4-1.3l2.7-1.2l-3-1.9l-0.9-0.6l-0.4-1.3l2.7-1.2l-3-1.9l-0.9-0.6l-0.2-0.8l2.2-0.9
	l-1.7-1.1l-1.2-2.4l-1.9-3.7l-1.1,2.7l-0.9,2.3h0l-3.1,1.8l2.7,1.3l-1.3,0.7l-3.1,1.8l3.2,1.6l0.2,0.1l-1.4,0.8L117,92l3.2,1.6
	l0.1,0l-2.2,1.3l-3.1,1.8l2,1l-0.1,1l-0.8,0.5l-3.1,1.8l3.2,1.6l0.3,0.1v0.1l-1.1,0.6l-3.1,1.8l3.2,1.6l0.6,0.3v0l-2.3,1.3l-3.1,1.8
	l3.2,1.6l0.5,0.3l-1.8,1l-3.1,1.8l3.1,1.5l-1.6,0.9l-3.1,1.8l3.2,1.6l0.5,0.3l-1.8,1l-3.1,1.8l3.2,1.6l0.3,0.2l-0.1,0.5l-1.7,1
	l-2.8,1.6l3,1.4l-2,1.2l-2.8,1.6l3,1.4l0.8,0.1l-0.2,0.5l-0.2,0.1l-3.4,1.2l2.8,2.1l2.4,1.8l-0.1,1.4l3.3-1.4l0.4-0.2l-0.1,1.6
	l3.2-1.4l-0.1,1.4l3.2-1.4l-0.1,1.4l3.1-1.3v0.1c0,0,0.1,0,0.2,0h5.8l0.4-0.1v0.1h0c0.6,0,0.6,0.9,0,0.9h-0.1l0,0.4l3.2-1.4
	l-0.1,1.4l3.2-1.4l-0.1,1.4l3.2-1.4l-0.1,1.4l3.3-1.4l3.3-1.4l1.7-0.8L143.3,136.3z M118,98l-0.4-0.3L118,98L118,98z"/>
</svg>
