<?xml version="1.0" encoding="utf-8"?>

<svg version="1.1" id="Layer_1" xmlns="http://www.w3.org/2000/svg" xmlns:xlink="http://www.w3.org/1999/xlink" x="0px" y="0px"
	 viewBox="0 0 100 100" style="enable-background:new 0 0 100 100;" xml:space="preserve">
<style type="text/css">
	.st0{fill:#010101;}
</style>
<path class="st0" d="M53.2,49.1h-6.7c-0.1,0-0.2,0-0.3-0.1l-0.8,48.1h9.3l-1.2-48C53.4,49,53.3,49.1,53.2,49.1z"/>
<path class="st0" d="M84.1,27c0-1.4-0.7-2.6-1.9-3.6c0.5-0.7,0.8-1.5,0.8-2.4c0-1.9-1.3-3.5-3.2-4.3c0.1-0.4,0.2-0.9,0.2-1.3
	c0-2.6-2.6-4.8-5.9-4.9c-0.5,0-1.1,0-1.5,0.1c-0.4-2.3-2.9-4-5.8-4c-1,0-1.8,0.1-2.6,0.4c-0.6-2-2.9-3.6-5.7-3.6
	c-1.6,0-3,0.4-4.1,1.2c-1-1.4-2.9-2.4-5.1-2.4c-1.3,0-2.4,0.3-3.5,0.8c-1-0.6-2.3-1.1-3.7-1.1c-1.8,0-3.4,0.6-4.6,1.5
	C36.8,3.2,36.1,3,35.3,3c-2.9,0-5.4,1.6-5.9,3.8c-0.4,0-0.8-0.1-1.2-0.1c-3.3,0-6,2-6.1,4.7v0.2c-1.7,0.8-2.9,2.3-2.9,4
	c0,0.3,0,0.6,0.1,0.9c-2.1,0.7-3.5,2.4-3.5,4.2c0,1.2,0.5,2.3,1.4,3.2c-0.8,0.8-1.2,1.8-1.2,2.8c0,1.2,0.5,2.2,1.3,3
	c-0.6,0.8-1.1,1.7-1.1,2.6c0,2.1,1.7,3.9,4,4.6c-0.2,0.5-0.4,1.1-0.4,1.6c0,2.6,2.6,4.8,5.9,4.9c0.9,0,1.6-0.1,2.4-0.3
	c0.5,2.2,2.9,3.9,5.8,3.9c0.7,0,1.3-0.1,2-0.2c0.8,1.8,3,3.2,5.6,3.2c1.5,0,3-0.4,4-1.2c0,0.1,0,0.2,0,0.3c0,1.7,1.5,1.9,3.7,1.9
	c2,0,3.8,0.1,4-1.4c0.1,0.1,0.2,0.4,0.1,0.6c0.8,0.3,1.7,0.5,2.6,0.6c2.7,0,5.1-1.3,5.8-3.4c0.6,0.2,1.3,0.3,2,0.3
	c3.1,0,5.8-1.8,6.1-4.3h0.3c3.3,0,6-2,6.1-4.7c0-0.4,0-0.7-0.1-1.1c2.7-0.4,4.7-2.3,4.8-4.6c0-0.7-0.2-1.3-0.5-2
	C82.5,30.7,84.1,29,84.1,27z"/>
</svg>
