
<svg version="1.1" id="Layer_1" xmlns="http://www.w3.org/2000/svg" xmlns:xlink="http://www.w3.org/1999/xlink" x="0px" y="0px"
	 viewBox="75 75 100 100" style="enable-background:new 75 75 100 100;" xml:space="preserve">
<path id="XMLID_17_" d="M172.5,77.6c-13.1,16-39.1,50-39.5,50.6c-0.2,0.5-0.2,1.1-0.2,1.7c0,0.1,0.3,0.3,0.6,0.3c0.4,0,0.8,0,1.2,0
	c9.9,0,19.9,0,29.8,0c0.9,0,1,0,1,0.9c0,2.2,0,4.5,0,6.7c0,0.6-0.2,0.8-1,0.8c-9.8,0-19.6,0-29.4,0c-0.5,0-0.9,0-1.4,0
	c-0.7,0-0.9,0.2-0.9,0.8c0,0.1,0,0.2,0,0.4c0,10.6,0,21.3,0,31.9c0,0.5-0.2,0.7-0.8,0.7c-4.8,0-9.5,0-14.3,0c-0.6,0-0.6-0.2-0.6-0.7
	c0-10.7,0-21.4,0-32.1c0-1,0-1-1.2-1c-10.2,0-20.4,0-30.6,0c-0.7,0-0.9-0.2-0.9-0.8c0-2.3,0-4.6,0-6.8c0-0.8,0-0.9,0.9-0.9
	c10.1,0,20.1,0,30.2,0c0.4,0,1.2-0.1,1.2-0.2c0.2-2.2-1.7-3.9-3-5.6c-6-7.7-11.9-15.4-17.9-23.1C89.9,93.6,83.2,86,77.6,78
	c-0.1-0.1,0-0.2-0.1-0.4c0.3,0,0.5,0,0.7,0c5.9,0,11.8,0,17.7,0c0.7,0,1.2,0.2,1.5,0.7c9.6,12.2,17.9,25.1,26.9,37.6
	c0.2,0.3,0.9,0.3,1.2-0.1c8.9-12.5,18.7-24.7,26.8-37.6c0.3-0.5,0.8-0.6,1.3-0.6c2.9,0,5.9,0,8.9,0c2.9,0,5.8,0,8.7,0
	C171.6,77.5,172,77.6,172.5,77.6z"/>
</svg>
