<?xml version="1.0" encoding="utf-8"?>
<svg version="1.1" id="Layer_1" xmlns="http://www.w3.org/2000/svg" xmlns:xlink="http://www.w3.org/1999/xlink" x="0px" y="0px"
	 viewBox="0 0 100 100" style="enable-background:new 0 0 100 100;" xml:space="preserve">
<style type="text/css">
	.st0{fill:#010101;}
</style>
<path id="XMLID_17_" class="st0" d="M97.5,2.6c-13.1,16-39.1,50-39.5,50.6c-0.2,0.5-0.2,1.1-0.2,1.7c0,0.1,0.3,0.3,0.6,0.3
	c0.4,0,0.8,0,1.2,0c9.9,0,19.9,0,29.8,0c0.9,0,1,0,1,0.9c0,2.2,0,4.5,0,6.7c0,0.6-0.2,0.8-1,0.8c-9.8,0-19.6,0-29.4,0
	c-0.5,0-0.9,0-1.4,0c-0.7,0-0.9,0.2-0.9,0.8c0,0.1,0,0.2,0,0.4c0,10.6,0,21.3,0,31.9c0,0.5-0.2,0.7-0.8,0.7c-4.8,0-9.5,0-14.3,0
	c-0.6,0-0.6-0.2-0.6-0.7c0-10.7,0-21.4,0-32.1c0-1,0-1-1.2-1c-10.2,0-20.4,0-30.6,0c-0.7,0-0.9-0.2-0.9-0.8c0-2.3,0-4.6,0-6.8
	c0-0.8,0-0.9,0.9-0.9c10.1,0,20.1,0,30.2,0c0.4,0,1.2-0.1,1.2-0.2c0.2-2.2-1.7-3.9-3-5.6c-6-7.7-11.9-15.4-17.9-23.1
	C14.9,18.6,8.2,11,2.6,3c-0.1-0.1,0-0.2-0.1-0.4c0.3,0,0.5,0,0.7,0c5.9,0,11.8,0,17.7,0c0.7,0,1.2,0.2,1.5,0.7
	C32,15.5,40.3,28.4,49.3,40.9c0.2,0.3,0.9,0.3,1.2-0.1c8.9-12.5,18.7-24.7,26.8-37.6c0.3-0.5,0.8-0.6,1.3-0.6c2.9,0,5.9,0,8.9,0
	c2.9,0,5.8,0,8.7,0C96.6,2.5,97,2.6,97.5,2.6z"/>
</svg>
