<?xml version="1.0" encoding="utf-8"?>
<svg version="1.1" id="Layer_1" xmlns="http://www.w3.org/2000/svg" xmlns:xlink="http://www.w3.org/1999/xlink" x="0px" y="0px"
	 viewBox="0 0 100 100" style="enable-background:new 0 0 100 100;" xml:space="preserve">
<style type="text/css">
	.st0{fill:#010101;}
</style>
<path id="XMLID_17_" class="st0" d="M80.8,97.3c-0.4,0-0.7,0.1-1,0.1c-6.9,0-13.8,0-20.6,0c-0.5,0-1.2-0.2-1.6-0.5
	c-8.6-7-17.1-14.2-25.5-21.3C24.3,68.9,17,61.5,8.3,55.4c-1.1-0.8-1.2-1.7-1.1-2.7c0-1.9,0-3.8,0-5.7c0-0.9,0.3-1.1,1.6-1.1
	c4.6,0,9.1,0.2,13.7,0.2c13,0,30.3-5,31.5-15.6c0-0.6-0.2-0.9-1.1-0.9c-0.4,0-0.8,0-1.2,0c-16,0-32,0-48,0c-0.3,0-0.6,0-1.1,0
	c0.4-0.5,0.8-1,1.1-1.3c2.2-2.3,4.6-4.6,6.8-6.9c0.5-0.5,1.2-0.8,2.1-0.8c12.9,0,25.7,0,38.6,0c1,0,1.2-0.1,0.8-0.7
	c-9.8-11.1-32.6-8.3-48-8.5c-0.2,0-0.4,0-0.5,0c-0.3,0-0.7-0.1-0.8-0.2c-0.1-0.1,0.1-0.4,0.2-0.5C5.5,8.2,8,5.7,10.5,3.1
	c0.4-0.4,1-0.5,1.6-0.5c28.1,0,56.2,0,84.3,0c0.3,0,0.5,0,1,0c-1,0-6,7-7.9,8.5c-0.4,0.3-1,0.5-1.6,0.5c-6.7,0-13.5,0-20.3,0
	c-0.3,0-0.6,0-1.1,0c2.3,2.5,4.4,4.8,5.6,7.7c0,0.1,0,0.2,0,0.3c0.2,1.3,0.2,1.3,2.1,1.3c7.2,0,14.5,0,21.7,0c0.2,0,0.5,0,0.7,0
	c0.6,0,0.8,0.2,0.4,0.6c-2.5,2.6-5.1,5.2-7.7,7.7c-0.4,0.4-1,0.5-1.7,0.5c-4.5,0-9.1,0-13.6,0c-1.4,0-1.5,0.1-1.7,1
	c-3,13.7-24.8,22.1-43,22c-0.4,0-0.9,0.1-1,0.3s0.1,0.5,0.4,0.8c8,7,16.2,13.8,24.4,20.7C61.1,81,79.6,97.4,80.8,97.3z"/>
</svg>
