<?xml version="1.0" encoding="utf-8"?>

<svg version="1.1" id="Layer_1" xmlns="http://www.w3.org/2000/svg" xmlns:xlink="http://www.w3.org/1999/xlink" x="0px" y="0px"
	 viewBox="0 0 100 100" style="enable-background:new 0 0 100 100;" xml:space="preserve">
<style type="text/css">
	.st0{fill:#010101;}
</style>
<path id="XMLID_22_" class="st0" d="M39.9,55.3c18.3-0.3,41.6,2.9,53-12.3c5.2-6.9,6-15.9,2.4-23.4c-4-8.5-15.5-13.3-25.6-15.1
	c-4.6-0.8-9.3-1.2-14-1.5c-17-0.9-34.4-0.1-51.4-0.1c-0.7,0-1.2,0.3-1.5,0.8c-0.3,0.6,0.1,1.7,0.6,2C4.6,6.5,9,6,10.5,6.1
	c2.9,0.2,6.2,0.7,7.8,2.9c1,1.3,1.3,2.9,1.6,4.5c1.9,11.6,0.7,23.8,0.7,35.5c0,1.2-0.3,1.5-1.9,1.5c-4.9,0-9.9,0-14.8,0
	c-0.8,0-1.2,0.2-1.3,0.9c-0.1,0.8-0.1,1.5-0.1,2.2c0,1.2,0.7,1.7,2.1,1.7c5.1,0,10.2,0,15.2,0c0.5,0,0.8,0.2,0.8,0.7
	c0,1.4,0,2.8,0,4.2c0,0.6-0.3,0.9-1.1,0.9c-5.1-0.1-10.3,0-15.4,0c-0.8,0-1.4,0.2-1.5,0.9c0,0.8-0.2,1.7-0.1,2.5
	c0.1,1,0.9,1.4,1.9,1.3c4.9,0,9.9,0,14.8,0c1.3,0,1.4,0,1.4,1.2c0,4.3,0.1,8.7-0.1,13c-0.2,3.5,0.7,7-1.7,10.3
	c-3.1,4.4-9.1,4.2-14.5,4.3c-0.9,0-1.5,0.4-1.6,1c-0.2,0.9,0,1.5,0.9,1.8c0.4,0.1,0.9,0.1,1.3,0.1c9.6,0,42.8,0,49.7,0
	c1.2,0,1.9-0.6,1.9-1.5c0-1-0.4-1.4-1.8-1.4c-5.6-0.1-11.5,0.2-14.6-4.5c-2.2-3.2-1.5-6.9-1.5-10.4c0-4.1,0-8.3-0.1-12.3
	c0-1.4,0-1.4,1.8-1.4c16.8,0,33.6,0.1,50.3,0c0.9,0,1.6-0.4,1.6-1c0-0.9,0-1.9,0-2.8c0-0.6-0.4-0.9-1.2-0.9c-0.7,0-1.4,0-2,0
	c-14,0-28.1,0-42.1,0c-2.5,0-5,0-7.5,0c-1.2,0-1.2,0-1.2-1c0-1.2,0-2.4,0-3.6C38.4,55.6,38.7,55.3,39.9,55.3z M38.3,48.8
	c0-6.1,0-12.3,0-18.4s0-12.2,0-18.3c0-0.7,0.1-1.7,1-2.1c0.5-0.2,1-0.2,1.6-0.3c7.8-0.6,16.4-1.7,23.6,1.6
	c9.7,4.4,13.8,13.5,12,22.5c-0.9,4.3-3.3,8.5-7.1,11.4c-8.2,6.6-18.6,5.2-28.8,5.5C38.4,50.7,38.3,50.6,38.3,48.8z"/>
</svg>
