
<svg version="1.1" id="Layer_1" xmlns="http://www.w3.org/2000/svg" xmlns:xlink="http://www.w3.org/1999/xlink" x="0px" y="0px"
	 viewBox="75 75 100 100" style="enable-background:new 75 75 100 100;" xml:space="preserve">
<path id="XMLID_17_" d="M98.5,160.9c0.3-0.1,0.6-0.1,0.8-0.2c5.7-1.8,11.8-3.4,18.2-3.7c7-0.3,13.9,1.3,20.6,2.5
	c8.8,1.5,16.2,1.4,24.5-1.2c0.5-0.1,0.9-0.4,1.3-0.6c1-0.5,1-0.5,1.7,0.2c1.1,1.2,2.2,2.3,3.3,3.5c1.1,1.1,2.2,2.3,3.3,3.5
	c0.4,0.4,0.4,0.7-0.1,1c-11.7,8.2-32,7.9-46.6,3.8c-5-1.4-9.3-2.7-14.8-2.8c-6.2-0.2-11.7,1-17.4,2.6c-1.5,0.4-2.8,1-4.2,1.6
	c-0.7,0.3-1.2,0.3-1.7-0.2c-1.4-1.3-2.8-2.7-4.2-4l0,0c-1.7-1.6-4.9-3-2.4-4.9c2.2-1.7,5.1-3,7.4-4.6c4.9-3.5,10.6-7.9,12.5-12.6
	c2-5.1,1.8-10.4-2-15.1c-0.2-0.3-0.9-0.5-1.4-0.5c-6.2,0-12.5,0-18.7,0c-0.9,0-1.1-0.1-1.1-0.8c0-1.8,0-3.5,0-5.3c0-0.9,0.2-1,1.4-1
	c4,0,8.1,0,12.2,0c1.1,0,1.3-0.2,0.8-0.9c-3.3-3.9-6.8-7.3-8.2-11.9c-4.8-15.7,13.9-29,35.6-31.5c12.6-1.4,26.5,0.5,36.5,6.1
	c10.1,5.7,12.3,13.5,12.8,22c0,0.8-0.2,0.9-1.3,0.9c-4.6,0-9.3,0-13.9,0c-1,0-1.2-0.2-1.4-0.9c-0.5-3.7-0.5-6.7-3.3-10
	c-5.6-6.6-17.5-10.2-28.3-8.7c-9.4,1.2-17.2,6.6-19.4,12.9c-2.8,7.9,4.7,14.6,9.7,21.3c0.4,0.5,0.9,0.7,1.7,0.7c9.1,0,18.3,0,27.4,0
	c1.3,0,1.3,0,1.3,0.9c0,1.8,0,3.5,0,5.3c0,0.8,0,0.8-1.1,0.8c-7.5,0-15,0-22.5,0c-0.3,0-0.6,0-0.9,0c-0.6,0-0.7,0.2-0.5,0.6
	c7.7,12.4-6.3,22.2-17.4,30.8C98.6,160.7,98.6,160.7,98.5,160.9z"/>
</svg>
