<?xml version="1.0" encoding="utf-8"?>

<svg version="1.1" id="Layer_1" xmlns="http://www.w3.org/2000/svg" xmlns:xlink="http://www.w3.org/1999/xlink" x="0px" y="0px"
	 viewBox="0 0 100 100" style="enable-background:new 0 0 100 100;" xml:space="preserve">
<style type="text/css">
	.st0{fill:#010101;}
</style>
<path class="st0" d="M45.6,64.5c0-3.4,0-6.8,0-10.3c0-0.8-0.1-0.9-1.3-1.1c-11-1.8-22.3-2.8-30.4-8.4C10,42,7.3,38.7,6,35.2
	c-2.4-6.4,1.1-13.2,8-18c8.1-5.7,18.9-7.1,30.4-7.6c1.2,0,1.3-0.1,1.3-0.9c0-1.9,0-3.8,0-5.7c0-0.3,0-0.5,0.7-0.5c2.5,0,5,0,7.6,0
	c0.7,0,0.9,0.1,0.9,0.6c0,1.9,0,3.8,0,5.7c0,0.5,0.3,0.8,1.1,0.8c9,0.5,18.3,2,25.7,5.4C90.3,19,94,24.7,95,31.2
	c0.1,0.5-0.2,0.6-0.9,0.6c-7.6,0-15.1,0-22.6,0c-1.2,0-1.3-0.1-1.4-0.8c-0.5-4.9-5.4-10.2-14.1-10c-0.9,0-1.1,0.1-1.1,0.7
	c0,6.1,0,12.2,0,18.3c0,0.7,0.1,0.8,1.2,0.9c6.9,1.3,14.1,2.3,20.6,4.5c7.6,2.5,15.6,6.1,18.7,11.2c4.1,6.7,1.9,14.2-5,19.9
	c-4.3,3.5-10.3,6.2-16.8,7.8c-3.3,0.9-6.8,1.4-10.4,1.8c-1.8,0.2-8.3,0-8.3,1.8c0,2.9,0,5.8,0,8.7c0,0.8-0.2,0.9-1.5,0.9
	c-2.1,0-4.2,0-6.3,0c-1.1,0-1.3-0.1-1.3-0.9c0-2.9,0-5.8,0-8.7c0-0.8-0.1-0.9-1.4-0.9c-10.8-0.6-22.7-2.5-31-7.1
	C6,75.7,2.1,69.7,2.5,63.5c0-0.7,0.9-1.2,2-1.2c1.8,0,3.6,0,5.4,0c5.3,0,10.6,0,15.9,0c1.5,0,2.1,0.3,2.2,1.3
	c0.3,2.8,1.6,5.8,4.5,8.2s7.8,3.1,12.2,3.8c0.9,0.1,1.1,0,1.1-0.5C45.6,71.5,45.6,68,45.6,64.5z M54.7,65.3c0,3.1,0,6.3,0,9.5
	c0,0.6,0.1,0.7,1.1,0.6c1.3-0.1,2.6-0.2,3.8-0.4s2.4-0.3,3.5-0.7c1.3-0.4,2.5-0.9,3.6-1.5c1.4-0.7,2.4-1.5,2.9-2.5
	c0.7-1.3,1.3-2.7,1.4-4.2c0-1.9-0.3-3.7-1.9-5.4c-1.3-1.4-3.1-2.5-5.3-3.1c-2.6-0.8-5.4-1.4-8.1-2.1c-0.8-0.2-0.9-0.1-0.9,0.4
	C54.7,59,54.8,62.1,54.7,65.3z M45.5,30.2c0-1.2,0-2.5,0-3.7c0-1.6,0-3.2,0-4.8c0-0.3,0-0.6-0.7-0.6c-3.2,0.1-6.3,0.3-9.1,1.3
	c-3.7,1.4-5.7,3.4-6,6.1c0,0.1,0,0.3,0,0.4c-0.1,1.3-0.2,2.6,0.7,3.8c0.8,1,1.5,2,2.8,2.8c1.7,1.1,3.8,1.8,5.9,2.4
	c1.6,0.5,3.5,0.7,5.2,1c1.1,0.2,1.1,0.2,1.1-0.5C45.5,35.8,45.5,33,45.5,30.2z"/>
</svg>
