
<svg version="1.1" id="Layer_1" xmlns="http://www.w3.org/2000/svg" xmlns:xlink="http://www.w3.org/1999/xlink" x="0px" y="0px"
	 viewBox="75 75 100 100" style="enable-background:new 75 75 100 100;" xml:space="preserve">
<path d="M152,166.4c0-0.1,0-0.2,0-0.4c0.1-12,0-24,0.1-36.1c0-3.1-1.1-5.2-3.6-6.9c-6.5-4.5-26.5-17.1-26.4-19l0.1-10.4h4.1
	l-6.8-8.1l-6.9-8.1l-6.8,8.1l-6.8,8.1h4.3c0,3.3,0,8.3,0.1,10.4l-3.8,3.5v3.9c0,17.5,0,35.1,0,52.6c0,1,0,1.7,0,2.4
	c0,0.2,0,0.4,0,0.6H152C152,166.8,152,166.6,152,166.4z M114,94.5c1.6,0,2.9,0,4.5,0c0,1.4,0,2.7,0,4.3c-1.4,0-2.9,0-4.5,0
	C114,97.2,114,95.8,114,94.5z M113.9,100.7c1.4,0,2.9,0,4.6,0c0,1.4,0,2.7,0,4.4c-1.6,0-3,0-4.6,0
	C113.9,103.6,113.9,102.3,113.9,100.7z M114.9,110.2c0,1.4,0,2.8,0,4.2c-1.6,0-3.1,0-4.7,0c0-1.5,0-2.8,0-4.2
	C111.8,110.2,113.2,110.2,114.9,110.2z M114.9,116.5c0,1.6,0,2.9,0,4.4c-1.5,0-2.9,0-4.6,0c0-1.4,0-2.8,0-4.4
	C111.8,116.5,113.3,116.5,114.9,116.5z M106.7,105c0-1.4,0-2.8,0-4.3c1.5,0,3,0,4.7,0c0,1.4,0,2.7,0,4.3
	C109.9,105,108.5,105,106.7,105z M106.7,94.6c1.5,0,3,0,4.7,0c0,1.4,0,2.7,0,4.1c-1.6,0-3.1,0-4.7,0
	C106.7,97.4,106.7,96.1,106.7,94.6z M103.1,110.1c1.6,0,3,0,4.7,0c0,1.4,0,2.8,0,4.4c-1.6,0-3,0-4.7,0
	C103.1,113,103.1,111.7,103.1,110.1z M107.7,116.5c0,1.3,0,2.7,0,4.4c-1.7,0-3,0-4.6,0c0-1.5,0-2.8,0-4.4
	C104.6,116.5,106,116.5,107.7,116.5z M103.1,122.8c1.6,0,3,0,4.7,0c0,1.5,0,2.9,0,4.5c-1.5,0-2.9,0-4.7,0
	C103.1,125.7,103.1,124.3,103.1,122.8z M103.2,141.5c1.7-0.1,2.9,0.1,4.7,0c0,1.8,0,3.2,0,4.7c-1.6,0-2.9,0-4.7,0
	C103.1,144.8,103.2,143.2,103.2,141.5z M103.2,139.8c0-1.4,0-2.8,0-4.5c1.6,0,3,0,4.6,0c0,1.5,0,2.9,0,4.5
	C106.2,139.8,104.8,139.8,103.2,139.8z M103.2,147.9c1.5,0,2.9,0,4.6,0c0,1.4,0,2.8,0,4.4c-1.4,0-2.8,0-4.6,0
	C103.2,150.8,103.2,149.5,103.2,147.9z M107.8,164.9c-1.4,0-2.9,0-4.6,0c0-1.3,0-2.7,0-4.3c1.6,0,3,0,4.6,0
	C107.8,162,107.8,163.3,107.8,164.9z M107.8,158.7c-1.6,0-3,0-4.6,0c0-1.4,0-2.9,0-4.4c1.5,0,3,0,4.6,0
	C107.8,155.7,107.8,157.1,107.8,158.7z M107.9,133.5c-1.6,0-3,0-4.7,0c0-1.5,0-2.9,0-4.5c1.6,0,2.9,0,4.7,0
	C107.9,130.6,107.9,131.9,107.9,133.5z M110.2,129.1c1.5,0,3,0,4.7,0c0,1.4,0,2.8,0,4.3c-1.6,0-3.1,0-4.7,0
	C110.2,131.8,110.2,130.6,110.2,129.1z M110.4,148c1.5,0,2.9,0,4.6,0c0,1.4,0,2.7,0,4.4c-1.5,0-2.9,0-4.6,0
	C110.4,150.9,110.4,149.6,110.4,148z M110.3,146.1c0-1.5,0-3,0-4.7c1.3,0,2.8,0.1,4.5,0c0,1.6,0,3,0,4.7
	C113.3,146.1,111.9,146.1,110.3,146.1z M110.3,139.7c0-1.5,0-2.9,0-4.4c1.6,0,3,0,4.7,0c0,1.5,0,2.8,0,4.4
	C113.5,139.7,112,139.7,110.3,139.7z M114.9,164.9c-1.5,0-2.9,0-4.7,0c0-1.5,0-2.8,0-4.3c1.6,0,3,0,4.7,0
	C114.9,162.1,114.9,163.4,114.9,164.9z M115,158.7c-1.5,0-2.9,0-4.6,0c0-1.4,0-2.8,0-4.4c1.5,0,2.9,0,4.6,0
	C115,155.8,115,157.2,115,158.7z M115,127.1c-1.5,0-3,0-4.7,0c0-1.5,0-2.8,0-4.4c1.6,0,3,0,4.7,0C115,124.2,115,125.6,115,127.1z
	 M117.5,110.1c1.5,0,2.9,0,4.6,0c0,1.4,0,2.8,0,4.4c-1.7,0-3,0-4.6,0C117.5,113,117.5,111.7,117.5,110.1z M117.5,133.6
	c0-1.6,0-3,0-4.7c1.6,0,3,0,4.5,0c0,1.5,0,2.9,0,4.7C120.6,133.7,119.3,133.6,117.5,133.6z M122,135.4c0,1.4,0,2.8,0,4.5
	c-1.6,0-2.8,0-4.4,0c0-1.5,0-2.9,0-4.5C119,135.4,120.4,135.4,122,135.4z M117.5,127.1c0-1.4,0-2.7,0-4.3c1.5,0,2.9,0,4.6,0
	c0,1.4,0,2.7,0,4.3C120.6,127.1,119.2,127.1,117.5,127.1z M117.6,120.9c0-1.4,0-2.8,0-4.4c1.4,0,2.9,0,4.5,0c0,1.4,0,2.8,0,4.4
	C120.5,120.9,119.2,120.9,117.6,120.9z M117.5,141.8c1.5,0,2.9,0,4.6,0c0,1.4,0,2.7,0,4.3c-1.5,0-2.9,0-4.6,0
	C117.5,144.7,117.5,143.3,117.5,141.8z M122,147.9c0,1.4,0,2.8,0,4.4c-1.4,0-2.8,0-4.5,0c0-1.4,0-2.8,0-4.4
	C119,147.9,120.4,147.9,122,147.9z M117.6,154.4c1.8,0,2.9,0,4.5,0c0,1.6,0,2.9,0,4.5c-1.6,0-2.8,0-4.5,0
	C117.5,157.4,117.7,156,117.6,154.4z M117.6,165.2c0-1.6,0-3,0-4.6c1.6,0,3.1,0,4.7,0c0,1.5,0,3,0,4.6
	C120.7,165.3,119.3,165.1,117.6,165.2z M144.1,129c1.5,0,2.9,0,4.7,0c0,1.5,0,2.9,0,4.4c-1.5,0-3,0-4.7,0
	C144.1,132,144.1,130.6,144.1,129z M148.7,135.4c0,1.4,0,2.8,0,4.5c-1.6,0-2.9,0-4.6,0c0-1.5,0-2.9,0-4.5
	C145.7,135.4,147,135.4,148.7,135.4z M144,148c1.5,0,2.9,0,4.7,0c0,1.3,0,2.7,0,4.3c-1.5,0-2.9,0-4.7,0C144,150.7,144,149.5,144,148
	z M137,122.7c1.7,0,3,0,4.6,0c0,1.6,0,3,0,4.5c-1.6,0-3,0-4.6,0C137,125.8,137,124.3,137,122.7z M129.9,116.4c1.5,0,2.9,0,4.5,0
	c0,1.5,0,2.9,0,4.4c-1.5,0-2.8,0-4.5,0C129.9,119.3,129.9,117.9,129.9,116.4z M129.9,129.1c1.5,0,2.9,0,4.6,0c0,1.4,0,2.8,0,4.4
	c-1.5,0-2.8,0-4.6,0C129.9,131.9,129.9,130.6,129.9,129.1z M130,154.3c1.5,0,2.9,0,4.5,0c0,1.4,0,2.7,0,4.4c-1.5,0-2.9,0-4.5,0
	C130,157.2,130,155.8,130,154.3z M130,152.4c0-1.5,0-2.8,0-4.4c1.5,0,2.9,0,4.5,0c0,1.4,0,2.7,0,4.4
	C132.9,152.4,131.6,152.4,130,152.4z M134.5,146.1c-1.5,0-2.9,0-4.5,0c0-1.6,0-2.9,0-4.4c1.5,0,2.9,0,4.5,0
	C134.5,143.1,134.5,144.5,134.5,146.1z M134.5,164.9c-1.4,0-2.9,0-4.6,0c0-1.5,0-2.8,0-4.2c1.5,0,2.9,0,4.6,0
	C134.5,162.1,134.5,163.4,134.5,164.9z M134.5,139.7c-1.5,0-2.9,0-4.5,0c0-1.3,0-2.7,0-4.4c1.6,0,2.9,0,4.5,0
	C134.5,136.9,134.5,138.2,134.5,139.7z M134.5,127.2c-1.6,0-2.9,0-4.6,0c0-1.5,0-2.9,0-4.5c1.5,0,2.9,0,4.6,0
	C134.5,124.2,134.5,125.6,134.5,127.2z M136.9,141.7c1.5-0.1,2.9,0.1,4.6,0c0,1.6,0.1,2.8,0.1,4.3c-1.6,0-3.1,0-4.7,0
	C136.9,144.5,136.9,143.3,136.9,141.7z M141.6,152.2c-1.7,0-2.9,0-4.6,0c0-1.4,0-2.8,0-4.3c1.5,0,2.9,0,4.6,0
	C141.7,149.3,141.5,150.6,141.6,152.2z M141.7,164.9c-1.7,0-3.1,0-4.7,0c0-1.5,0-2.9,0-4.3c1.6,0,3.1,0,4.7,0
	C141.7,162.1,141.7,163.4,141.7,164.9z M141.7,158.7c-1.6,0-3.1,0-4.7,0c0-1.5,0-2.8,0-4.3c1.5,0,3,0,4.7,0
	C141.7,155.9,141.7,157.2,141.7,158.7z M141.7,139.7c-1.5,0-3,0-4.7,0c0-1.4,0-2.8,0-4.4c1.6,0,3,0,4.7,0
	C141.7,136.9,141.7,138.2,141.7,139.7z M141.7,133.5c-1.6,0-3.1,0-4.7,0c0-1.5,0-2.8,0-4.4c1.5,0,2.9,0,4.7,0
	C141.7,130.6,141.7,131.9,141.7,133.5z M144,154.4c1.5,0,2.9,0,4.7,0c0,1.3,0,2.7,0,4.3c-1.5,0-2.9,0-4.7,0
	C144,157.1,144,155.9,144,154.4z M144.2,165.2c0-1.6,0-2.9,0-4.6c1.5,0,2.8,0,4.5,0c0,1.3,0,2.9,0,4.6
	C147.4,165.3,145.9,165.1,144.2,165.2z M148.8,146.1c-1.5,0-3,0-4.8,0c0-1.5,0-2.8,0-4.3c1.6,0,3.1,0,4.8,0
	C148.8,143.2,148.8,144.5,148.8,146.1z"/>
<polygon points="152,167 99.3,167 91.8,167 91.8,172.5 158.3,172.5 158.3,167 "/>
</svg>
