<?xml version="1.0" encoding="utf-8"?>

<svg version="1.1" id="Layer_1" xmlns="http://www.w3.org/2000/svg" xmlns:xlink="http://www.w3.org/1999/xlink" x="0px" y="0px"
	 viewBox="0 0 100 100" style="enable-background:new 0 0 100 100;" xml:space="preserve">
<style type="text/css">
	.st0{fill:#010101;}
</style>
<path class="st0" d="M76.5,92.2c0-0.1,0-0.2,0-0.4c0.1-12,0-24,0.1-36.1c0-3.1-1.1-5.2-3.6-6.9c-6.5-4.5-26.5-17.1-26.4-19l0.1-10.4
	h4.1L44,11.3l-6.9-8.1l-6.8,8.1l-6.8,8.1h4.3c0,3.3,0,8.3,0.1,10.4l-3.8,3.5v3.9c0,17.5,0,35.1,0,52.6c0,1,0,1.7,0,2.4
	c0,0.2,0,0.4,0,0.6h52.4C76.5,92.6,76.5,92.4,76.5,92.2z M38.5,20.3c1.6,0,2.9,0,4.5,0c0,1.4,0,2.7,0,4.3c-1.4,0-2.9,0-4.5,0
	C38.5,23,38.5,21.6,38.5,20.3z M38.4,26.5c1.4,0,2.9,0,4.6,0c0,1.4,0,2.7,0,4.4c-1.6,0-3,0-4.6,0C38.4,29.4,38.4,28.1,38.4,26.5z
	 M39.4,36c0,1.4,0,2.8,0,4.2c-1.6,0-3.1,0-4.7,0c0-1.5,0-2.8,0-4.2C36.3,36,37.7,36,39.4,36z M39.4,42.3c0,1.6,0,2.9,0,4.4
	c-1.5,0-2.9,0-4.6,0c0-1.4,0-2.8,0-4.4C36.3,42.3,37.8,42.3,39.4,42.3z M31.2,30.8c0-1.4,0-2.8,0-4.3c1.5,0,3,0,4.7,0
	c0,1.4,0,2.7,0,4.3C34.4,30.8,33,30.8,31.2,30.8z M31.2,20.4c1.5,0,3,0,4.7,0c0,1.4,0,2.7,0,4.1c-1.6,0-3.1,0-4.7,0
	C31.2,23.2,31.2,21.9,31.2,20.4z M27.6,35.9c1.6,0,3,0,4.7,0c0,1.4,0,2.8,0,4.4c-1.6,0-3,0-4.7,0C27.6,38.8,27.6,37.5,27.6,35.9z
	 M32.2,42.3c0,1.3,0,2.7,0,4.4c-1.7,0-3,0-4.6,0c0-1.5,0-2.8,0-4.4C29.1,42.3,30.5,42.3,32.2,42.3z M27.6,48.6c1.6,0,3,0,4.7,0
	c0,1.5,0,2.9,0,4.5c-1.5,0-2.9,0-4.7,0C27.6,51.5,27.6,50.1,27.6,48.6z M27.7,67.3c1.7-0.1,2.9,0.1,4.7,0c0,1.8,0,3.2,0,4.7
	c-1.6,0-2.9,0-4.7,0C27.6,70.6,27.7,69,27.7,67.3z M27.7,65.6c0-1.4,0-2.8,0-4.5c1.6,0,3,0,4.6,0c0,1.5,0,2.9,0,4.5
	C30.7,65.6,29.3,65.6,27.7,65.6z M27.7,73.7c1.5,0,2.9,0,4.6,0c0,1.4,0,2.8,0,4.4c-1.4,0-2.8,0-4.6,0C27.7,76.6,27.7,75.3,27.7,73.7
	z M32.3,90.7c-1.4,0-2.9,0-4.6,0c0-1.3,0-2.7,0-4.3c1.6,0,3,0,4.6,0C32.3,87.8,32.3,89.1,32.3,90.7z M32.3,84.5c-1.6,0-3,0-4.6,0
	c0-1.4,0-2.9,0-4.4c1.5,0,3,0,4.6,0C32.3,81.5,32.3,82.9,32.3,84.5z M32.4,59.3c-1.6,0-3,0-4.7,0c0-1.5,0-2.9,0-4.5
	c1.6,0,2.9,0,4.7,0C32.4,56.4,32.4,57.7,32.4,59.3z M34.7,54.9c1.5,0,3,0,4.7,0c0,1.4,0,2.8,0,4.3c-1.6,0-3.1,0-4.7,0
	C34.7,57.6,34.7,56.4,34.7,54.9z M34.9,73.8c1.5,0,2.9,0,4.6,0c0,1.4,0,2.7,0,4.4c-1.5,0-2.9,0-4.6,0C34.9,76.7,34.9,75.4,34.9,73.8
	z M34.8,71.9c0-1.5,0-3,0-4.7c1.3,0,2.8,0.1,4.5,0c0,1.6,0,3,0,4.7C37.8,71.9,36.4,71.9,34.8,71.9z M34.8,65.5c0-1.5,0-2.9,0-4.4
	c1.6,0,3,0,4.7,0c0,1.5,0,2.8,0,4.4C38,65.5,36.5,65.5,34.8,65.5z M39.4,90.7c-1.5,0-2.9,0-4.7,0c0-1.5,0-2.8,0-4.3c1.6,0,3,0,4.7,0
	C39.4,87.9,39.4,89.2,39.4,90.7z M39.5,84.5c-1.5,0-2.9,0-4.6,0c0-1.4,0-2.8,0-4.4c1.5,0,2.9,0,4.6,0C39.5,81.6,39.5,83,39.5,84.5z
	 M39.5,52.9c-1.5,0-3,0-4.7,0c0-1.5,0-2.8,0-4.4c1.6,0,3,0,4.7,0C39.5,50,39.5,51.4,39.5,52.9z M42,35.9c1.5,0,2.9,0,4.6,0
	c0,1.4,0,2.8,0,4.4c-1.7,0-3,0-4.6,0C42,38.8,42,37.5,42,35.9z M42,59.4c0-1.6,0-3,0-4.7c1.6,0,3,0,4.5,0c0,1.5,0,2.9,0,4.7
	C45.1,59.5,43.8,59.4,42,59.4z M46.5,61.2c0,1.4,0,2.8,0,4.5c-1.6,0-2.8,0-4.4,0c0-1.5,0-2.9,0-4.5C43.5,61.2,44.9,61.2,46.5,61.2z
	 M42,52.9c0-1.4,0-2.7,0-4.3c1.5,0,2.9,0,4.6,0c0,1.4,0,2.7,0,4.3C45.1,52.9,43.7,52.9,42,52.9z M42.1,46.7c0-1.4,0-2.8,0-4.4
	c1.4,0,2.9,0,4.5,0c0,1.4,0,2.8,0,4.4C45,46.7,43.7,46.7,42.1,46.7z M42,67.6c1.5,0,2.9,0,4.6,0c0,1.4,0,2.7,0,4.3
	c-1.5,0-2.9,0-4.6,0C42,70.5,42,69.1,42,67.6z M46.5,73.7c0,1.4,0,2.8,0,4.4c-1.4,0-2.8,0-4.5,0c0-1.4,0-2.8,0-4.4
	C43.5,73.7,44.9,73.7,46.5,73.7z M42.1,80.2c1.8,0,2.9,0,4.5,0c0,1.6,0,2.9,0,4.5c-1.6,0-2.8,0-4.5,0C42,83.2,42.2,81.8,42.1,80.2z
	 M42.1,91c0-1.6,0-3,0-4.6c1.6,0,3.1,0,4.7,0c0,1.5,0,3,0,4.6C45.2,91.1,43.8,90.9,42.1,91z M68.6,54.8c1.5,0,2.9,0,4.7,0
	c0,1.5,0,2.9,0,4.4c-1.5,0-3,0-4.7,0C68.6,57.8,68.6,56.4,68.6,54.8z M73.2,61.2c0,1.4,0,2.8,0,4.5c-1.6,0-2.9,0-4.6,0
	c0-1.5,0-2.9,0-4.5C70.2,61.2,71.5,61.2,73.2,61.2z M68.5,73.8c1.5,0,2.9,0,4.7,0c0,1.3,0,2.7,0,4.3c-1.5,0-2.9,0-4.7,0
	C68.5,76.5,68.5,75.3,68.5,73.8z M61.5,48.5c1.7,0,3,0,4.6,0c0,1.6,0,3,0,4.5c-1.6,0-3,0-4.6,0C61.5,51.6,61.5,50.1,61.5,48.5z
	 M54.3,42.2c1.5,0,2.9,0,4.5,0c0,1.5,0,2.9,0,4.4c-1.5,0-2.8,0-4.5,0C54.3,45.1,54.3,43.7,54.3,42.2z M54.3,54.9c1.5,0,2.9,0,4.6,0
	c0,1.4,0,2.8,0,4.4c-1.5,0-2.8,0-4.6,0C54.3,57.7,54.3,56.4,54.3,54.9z M54.5,80.1c1.5,0,2.9,0,4.5,0c0,1.4,0,2.7,0,4.4
	c-1.5,0-2.9,0-4.5,0C54.5,83,54.5,81.6,54.5,80.1z M54.5,78.2c0-1.5,0-2.8,0-4.4c1.5,0,2.9,0,4.5,0c0,1.4,0,2.7,0,4.4
	C57.3,78.2,56.1,78.2,54.5,78.2z M59,71.9c-1.5,0-2.9,0-4.5,0c0-1.6,0-2.9,0-4.4c1.5,0,2.9,0,4.5,0C59,68.9,59,70.3,59,71.9z
	 M59,90.7c-1.4,0-2.9,0-4.6,0c0-1.5,0-2.8,0-4.2c1.5,0,2.9,0,4.6,0C59,87.9,59,89.2,59,90.7z M59,65.5c-1.5,0-2.9,0-4.5,0
	c0-1.3,0-2.7,0-4.4c1.6,0,2.9,0,4.5,0C59,62.7,59,64,59,65.5z M59,53c-1.6,0-2.9,0-4.6,0c0-1.5,0-2.9,0-4.5c1.5,0,2.9,0,4.6,0
	C59,50,59,51.4,59,53z M61.3,67.5c1.5-0.1,2.9,0.1,4.6,0c0,1.6,0.1,2.8,0.1,4.3c-1.6,0-3.1,0-4.7,0C61.3,70.3,61.3,69.1,61.3,67.5z
	 M66.1,78c-1.7,0-2.9,0-4.6,0c0-1.4,0-2.8,0-4.3c1.5,0,2.9,0,4.6,0C66.2,75.1,66,76.4,66.1,78z M66.2,90.7c-1.7,0-3.1,0-4.7,0
	c0-1.5,0-2.9,0-4.3c1.6,0,3.1,0,4.7,0C66.2,87.9,66.2,89.2,66.2,90.7z M66.2,84.5c-1.6,0-3.1,0-4.7,0c0-1.5,0-2.8,0-4.3
	c1.5,0,3,0,4.7,0C66.2,81.7,66.2,83,66.2,84.5z M66.2,65.5c-1.5,0-3,0-4.7,0c0-1.4,0-2.8,0-4.4c1.6,0,3,0,4.7,0
	C66.2,62.7,66.2,64,66.2,65.5z M66.2,59.3c-1.6,0-3.1,0-4.7,0c0-1.5,0-2.8,0-4.4c1.5,0,2.9,0,4.7,0C66.2,56.4,66.2,57.7,66.2,59.3z
	 M68.5,80.2c1.5,0,2.9,0,4.7,0c0,1.3,0,2.7,0,4.3c-1.5,0-2.9,0-4.7,0C68.5,82.9,68.5,81.7,68.5,80.2z M68.7,91c0-1.6,0-2.9,0-4.6
	c1.5,0,2.8,0,4.5,0c0,1.3,0,2.9,0,4.6C71.8,91.1,70.3,90.9,68.7,91z M73.3,71.9c-1.5,0-3,0-4.8,0c0-1.5,0-2.8,0-4.3
	c1.6,0,3.1,0,4.8,0C73.3,69,73.3,70.3,73.3,71.9z"/>
<polygon class="st0" points="76.9,90.5 24.2,90.5 16.7,90.5 16.7,96 83.3,96 83.3,90.5 "/>
</svg>
