
<svg version="1.1" id="Layer_1" xmlns="http://www.w3.org/2000/svg" xmlns:xlink="http://www.w3.org/1999/xlink" x="0px" y="0px"
	 viewBox="75 75 100 100" style="enable-background:new 75 75 100 100;" xml:space="preserve">
<g id="XMLID_4_">
	<path id="XMLID_30_" d="M135.1,142.1c0.8-0.8,1.9-1.2,2.9-1.8c0.8-0.5,1.5-1.1,2.1-1.9c1.1-1.3,1.9-3,2.2-4.8
		c0.3-2.3-0.2-4.6-1.7-6.4c-2.2-2.7-5-4.1-8.1-5.6c0.9-0.6,1.4-1.3,1.4-2c0-1.4-1.8-2.6-4.6-3.3c-0.1-4.6-0.3-9.2-0.5-13.8
		c0-0.8,0-1.5,0.5-2.2c0.4-0.6,1-0.9,1.7-1.2c0.7-0.3,1.3-0.8,1.9-1.3c1.1-1,1.8-2.4,1.8-3.9c0-0.7-0.1-1.3-0.3-2
		c-0.2-0.4-0.4-0.9-0.6-1.2c-1-1.5-2.7-2.5-4.5-2.6c-0.4,0-0.9,0-1.3-0.1v-1.4h-2v-1.5h-0.7v-5.3c0.5-0.2,0.8-0.6,0.8-1.1
		c0-0.7-0.5-1.1-1.1-1.1s-1.1,0.5-1.1,1.1c0,0.5,0.3,0.9,0.8,1.1v5.3h-0.7v1.5h-2v1.3c0,0,0,0-0.1,0c-1.4,0.1-2.7,0.2-3.9,1
		c-1.4,0.9-2.6,2.4-2.8,4c0,0.2,0,0.3,0,0.5c-0.1,1.5,0.6,2.9,1.6,3.9c0.5,0.5,1.1,1,1.8,1.4c0.7,0.4,1.5,0.9,2,1.5
		c0.7,1,0.4,2.7,0.4,3.9c0,1.5-0.3,8.2-0.7,12c-3,0.6-5,1.9-5,3.3c0,0.8,0.6,1.5,1.7,2.2c-0.4,0.2-0.7,0.3-1.1,0.4
		c-5,1.4-8.5,6.2-8.2,10.5c0.1,1.6,0.2,3.4,0.9,4.9c0.7,1.4,2,2.1,3.3,2.9c0.9,0.5,1.8,0.9,2.7,1.5c0.8,0.5,1.4,1.3,1.8,2.1
		c0.4,1.1,0.2,2.2,0.1,3.3c-0.3,3.3-0.6,6.6-0.9,10c-0.4,3.9-0.7,7.9-1.1,11.8c0,0.1-0.1,1-0.1,1h-4.4v2.6h30.7V170h-4.4
		c-0.6-3.7-1-7.5-1.4-11.2c-0.2-2.2-0.5-4.3-0.7-6.5c-0.2-1.4-0.4-4.8-0.4-5.2c0-0.8,0-1.7,0.1-2.5
		C133.8,143.6,134.3,142.8,135.1,142.1z M132.1,93.7c0,1.2-3,2.2-6.7,2.2v-4.4C129.1,91.6,132.1,92.5,132.1,93.7z M127.2,101.8V115
		h-1v-13.2H127.2z M118.1,93.7c0-1.2,2.9-2.1,6.5-2.2v4.4C120.9,95.8,118.1,94.9,118.1,93.7z M123.8,101.8V115h-1v-13.2H123.8z
		 M124.9,128.9c5,0,10.1,1,12.2,2.9h-24.4C114.6,129.8,119.8,128.9,124.9,128.9z M123.6,166.3c0,1.1-0.9,2-2,2c-1.1,0-2-0.9-2-2
		v-4.9c0-1.1,0.9-2,2-2c1.1,0,2,0.9,2,2V166.3z M130.7,166.3c0,1.1-0.9,2-2,2c-1.1,0-2-0.9-2-2v-4.9c0-1.1,0.9-2,2-2
		c1.1,0,2,0.9,2,2V166.3z M125.2,135.6c-5.3,0-10.5-0.9-12.5-2.9h24.4C135.4,134.6,130.3,135.6,125.2,135.6z"/>
</g>
</svg>
