
<svg version="1.1" id="Building" xmlns="http://www.w3.org/2000/svg" xmlns:xlink="http://www.w3.org/1999/xlink" x="0px" y="0px"
	 viewBox="0 0 100 100" style="enable-background:new 0 0 100 100;" xml:space="preserve">
<path id="XMLID_30_" d="M60.1,67c0.8-0.8,1.9-1.2,2.9-1.8c0.8-0.5,1.5-1.1,2.1-1.9c1.1-1.3,1.9-3,2.2-4.8c0.3-2.3-0.2-4.6-1.7-6.4
	c-2.2-2.7-5-4.1-8.1-5.6c0.9-0.6,1.4-1.3,1.4-2c0-1.4-1.8-2.6-4.6-3.3c-0.1-4.6-0.3-9.2-0.5-13.8c0-0.8,0-1.5,0.5-2.2
	c0.4-0.6,1-0.9,1.7-1.2c0.7-0.3,1.3-0.8,1.9-1.3c1.1-1,1.8-2.4,1.8-3.9c0-0.7-0.1-1.3-0.3-2c-0.2-0.4-0.4-0.9-0.6-1.2
	c-1-1.5-2.7-2.5-4.5-2.6c-0.4,0-0.9,0-1.3-0.1v-1.4h-2V10h-0.7V4.7c0.5-0.2,0.8-0.6,0.8-1.1c0-0.7-0.5-1.1-1.1-1.1S48.9,3,48.9,3.6
	c0,0.5,0.3,0.9,0.8,1.1V10H49v1.5h-2v1.3c0,0,0,0-0.1,0c-1.4,0.1-2.7,0.2-3.9,1c-1.4,0.9-2.6,2.4-2.8,4c0,0.2,0,0.3,0,0.5
	c-0.1,1.5,0.6,2.9,1.6,3.9c0.5,0.5,1.1,1,1.8,1.4s1.5,0.9,2,1.5c0.7,1,0.4,2.7,0.4,3.9c0,1.5-0.3,8.2-0.7,12c-3,0.6-5,1.9-5,3.3
	c0,0.8,0.6,1.5,1.7,2.2c-0.4,0.2-0.7,0.3-1.1,0.4c-5,1.4-8.5,6.2-8.2,10.5c0.1,1.6,0.2,3.4,0.9,4.9c0.7,1.4,2,2.1,3.3,2.9
	c0.9,0.5,1.8,0.9,2.7,1.5c0.8,0.5,1.4,1.3,1.8,2.1c0.4,1.1,0.2,2.2,0.1,3.3c-0.3,3.3-0.6,6.6-0.9,10c-0.4,3.9-0.7,7.9-1.1,11.8
	c0,0.1-0.1,1-0.1,1H35v2.6h30.7v-2.6h-4.4c-0.6-3.7-1-7.5-1.4-11.2c-0.2-2.2-0.5-4.3-0.7-6.5c-0.2-1.4-0.4-4.8-0.4-5.2
	c0-0.8,0-1.7,0.1-2.5C58.8,68.5,59.3,67.7,60.1,67z M57.1,18.6c0,1.2-3,2.2-6.7,2.2v-4.4C54.1,16.5,57.1,17.4,57.1,18.6z M52.2,26.7
	v13.2h-1V26.7H52.2z M43.1,18.6c0-1.2,2.9-2.1,6.5-2.2v4.4C45.9,20.7,43.1,19.8,43.1,18.6z M48.8,26.7v13.2h-1V26.7H48.8z
	 M49.9,53.8c5,0,10.1,1,12.2,2.9H37.7C39.6,54.7,44.8,53.8,49.9,53.8z M48.6,91.2c0,1.1-0.9,2-2,2s-2-0.9-2-2v-4.9c0-1.1,0.9-2,2-2
	s2,0.9,2,2V91.2z M55.7,91.2c0,1.1-0.9,2-2,2s-2-0.9-2-2v-4.9c0-1.1,0.9-2,2-2s2,0.9,2,2V91.2z M50.2,60.5c-5.3,0-10.5-0.9-12.5-2.9
	h24.4C60.4,59.5,55.3,60.5,50.2,60.5z"/>
</svg>
