
<svg version="1.1" id="Layer_1" xmlns="http://www.w3.org/2000/svg" xmlns:xlink="http://www.w3.org/1999/xlink" x="0px" y="0px"
	 viewBox="0 0 100 100" style="enable-background:new 0 0 100 100;" xml:space="preserve">
<path id="XMLID_219_" d="M71.5,96.1l-2-2.4V33.7l1.9-2.2l0.7-0.5l-0.9-0.6h-1.1l-2.2-2L66,26.7h1.7l1.7-0.6l-1.7-0.6H60l-1.9-1.8v-8
	H55L52.7,14L50,2.4h-1.1l-2.6,11.8l-1.9,1.4h-3.5v8l-1.8,1.7h-8.2l-1.1,0.6l1.1,0.6H33l-1.7,1.6L29,30.3h-0.6l-1,0.5l0.5,0.6
	l1.8,2.6v59.2l-2.2,3.6l-0.2,0.7h45.3L71.5,96.1z M38,37.8h2.8v2.6H38V37.8z M37.9,41.6h2.9v2.5h-2.9V41.6z M37.9,48.9h2.8v2.6h-2.8
	V48.9z M33.5,40.4v-2.7h2.8v2.7H33.5z M36.3,41.6v2.6h-2.8v-2.6H36.3z M33.5,48.9h2.8v2.6h-2.8V48.9z M33.5,56.4h2.8v2.6h-2.8V56.4z
	 M33.5,55.4v-2.7h2.8v2.6L33.5,55.4z M33.5,47.8v-2.6h2.9v2.6H33.5z M33.5,36.6v-2.5h2.9v2.5H33.5z M36.3,85.1h-2.8v-2.6h2.8V85.1z
	 M36.4,81.6h-2.9v-2.5h2.9V81.6z M36.3,75.1v2.6h-2.8v-2.6H36.3z M33.7,73.9v-2.6h2.8v2.6H33.7z M36.4,70.3h-2.9v-2.6h2.9V70.3z
	 M36.4,66.6h-2.9v-2.6h2.9V66.6z M33.5,62.8v-2.6h2.9l0.1,2.6H33.5z M40.7,85.1h-2.8v-2.5h2.9L40.7,85.1z M40.7,81.6h-2.8v-2.6h2.8
	V81.6z M38,77.8v-2.7h2.7v2.7H38z M40.7,73.9h-2.8v-2.5h2.9L40.7,73.9z M40.7,70.1h-2.8v-2.5h2.9L40.7,70.1z M40.7,66.4h-2.8v-2.5
	h2.8V66.4z M40.7,62.8h-2.8v-2.6h2.8V62.8z M40.7,59.1h-2.8v-2.6h2.8V59.1z M40.8,55.3H38v-2.6h2.8V55.3z M40.8,47.8H38v-2.5h2.9
	V47.8z M40.8,36.6H38v-2.5h2.8V36.6z M46,17.4h2.8V20H46V17.4z M46,21.1h2.8v2.6H46V21.1z M48.8,85.1h-1.7V49.7V34.1h1.5L48.8,85.1z
	 M45.2,85.1h-2.8v-2.6h2.8V85.1z M45.2,81.6h-2.9v-2.6h2.9V81.6z M45.2,77.8h-2.9v-2.6h2.9V77.8z M42.3,70.3v-2.6h2.9v2.6H42.3z
	 M45.2,73.9h-2.9v-2.6h2.9V73.9z M45.2,66.6h-2.8l-0.2-2.6h3V66.6z M42.3,59.1v-2.4h2.8v2.4H42.3z M45.2,60.3v2.6h-2.8v-2.6H45.2z
	 M42.3,55.4v-2.7h2.8v2.7H42.3z M42.3,51.6v-2.6h2.9v2.6H42.3z M45.2,47.8h-2.9v-2.5h2.9V47.8z M45.2,37.8v2.6h-2.8v-2.6H45.2z
	 M42.3,36.6v-2.6h2.8v2.6H42.3z M45.2,41.6v2.6l-2.9,0.1v-2.7L45.2,41.6z M45.7,29.8H41v-3.3h4.7V29.8z M49.2,94.9H46v-5.8h3.2V94.9
	z M62.8,34.1h2.8v2.6h-2.8V34.1z M62.8,37.8h2.8v2.6h-2.8V37.8z M62.8,41.6l2.8-0.1v2.7h-2.8V41.6z M62.8,45.3h2.8v2.6h-2.8V45.3z
	 M62.9,55.4v-2.7h2.8v2.7H62.9z M65.7,56.6v2.6h-2.8v-2.6H65.7z M62.8,60.3h2.9v2.5h-2.9V60.3z M62.9,74.1v-2.7h2.8v2.7H62.9z
	 M65.7,75.1v2.6h-2.8v-2.6H65.7z M62.8,70.3v-2.6h2.8v2.6H62.8z M62.9,66.6v-2.6h2.8v2.6H62.9z M62.8,78.9h2.9v2.6h-2.9V78.9z
	 M58.5,41.6h2.8v2.6h-2.8V41.6z M58.5,40.3v-2.6h2.8v2.6H58.5z M58.5,52.8h2.8v2.6h-2.8V52.8z M58.5,60.3h2.8v2.6h-2.8V60.3z
	 M58.5,67.6h2.8v2.6h-2.8V67.6z M50.4,23.8v-2.5h2.8v2.5H50.4z M52.2,34.1v51.1h-1.6V34.1H52.2z M50.4,17.5h2.9V20h-2.9V17.5z
	 M53.3,94.9h-3.2v-5.8h3.2V94.9z M57,85.1h-2.9v-2.6H57V85.1z M56.9,37.8v2.7h-2.8v-2.7H56.9z M54.2,36.6V34H57v2.6H54.2z
	 M56.9,41.6v2.6h-2.7v-2.6H56.9z M57,60.3v2.6h-2.8v-2.6H57z M54.2,59.1v-2.7H57v2.7H54.2z M54.2,55.4v-2.7H57v2.6L54.2,55.4z
	 M56.9,51.6h-2.8V49h2.8V51.6z M56.9,63.9v2.6h-2.8v-2.6H56.9z M57,67.6v2.6h-2.9v-2.6H57z M57,71.3v2.6h-2.8v-2.6H57z M56.9,75.1
	v2.7h-2.8v-2.7H56.9z M57,81.4h-2.9v-2.5H57V81.4z M57,47.8h-2.9v-2.5H57V47.8z M58.2,29.9h-4.8v-3.3h4.8V29.9z M61.3,85.1h-2.8
	v-2.6h2.8V85.1z M61.3,81.6l-2.8,0.1V79h2.8V81.6z M61.3,77.8h-2.8v-2.6h2.8V77.8z M61.3,73.9h-2.8v-2.6h2.8V73.9z M61.3,66.6h-2.8
	v-2.6h2.8V66.6z M61.3,59.1h-2.8v-2.7h2.8V59.1z M61.3,51.6h-2.8V49h2.8V51.6z M61.3,47.8h-2.9v-2.6h2.9V47.8z M61.3,36.6h-2.9v-2.6
	h2.9V36.6z M65.7,85.3l-2.9,0.1v-2.8h2.9V85.3z M65.7,51.6h-2.8v-2.6h2.8V51.6z"/>
</svg>
