
<svg version="1.1" id="Layer_1" xmlns="http://www.w3.org/2000/svg" xmlns:xlink="http://www.w3.org/1999/xlink" x="0px" y="0px"
	 viewBox="75 75 100 100" style="enable-background:new 75 75 100 100;" xml:space="preserve">
<g>
	<path d="M146.6,171.4l-2-2.4v-60.1l1.9-2.2l0.7-0.5l-0.9-0.6h-1.1l-2.2-2l-1.9-1.7l1.7,0l1.7-0.6l-1.7-0.6h-7.7l-1.9-1.8l0-8h-3.1
		l-2.4-1.7l-2.6-11.5H124l-2.6,11.8l-1.9,1.4H116l0,8l-1.8,1.7H106l-1.1,0.6l1.1,0.6h2.1l-1.7,1.6l-2.3,2.2h-0.6l-1,0.5l0.5,0.6
		l1.8,2.6v59.2l-2.2,3.6l-0.2,0.7v0h45.3L146.6,171.4z M113.1,113.1h2.8v2.6h-2.8V113.1z M113,116.8h2.9v2.5H113V116.8z M113,124.2
		h2.8v2.6H113V124.2z M108.6,115.7V113h2.8v2.7H108.6z M111.4,116.8v2.6h-2.8v-2.6H111.4z M108.6,124.2h2.8v2.6h-2.8V124.2z
		 M108.6,131.7h2.8v2.6h-2.8V131.7z M108.6,130.7V128h2.8v2.6H108.6z M108.6,123.1v-2.6h2.9v2.6H108.6z M108.6,111.9v-2.5h2.9v2.5
		H108.6z M111.4,160.4h-2.8v-2.6h2.8V160.4z M111.5,156.8h-2.9v-2.5h2.9V156.8z M111.4,150.4v2.6h-2.8v-2.6H111.4z M108.7,149.2
		v-2.6h2.8v2.6H108.7z M111.5,145.5h-2.9v-2.6h2.9V145.5z M111.5,141.8h-2.9v-2.6h2.9V141.8z M108.6,138v-2.6h2.9l0.1,2.6H108.6z
		 M115.8,160.4H113v-2.5h2.9V160.4z M115.8,156.8H113v-2.6h2.8V156.8z M113.1,153.1v-2.7h2.7v2.7H113.1z M115.8,149.2H113v-2.5h2.9
		V149.2z M115.8,145.4H113v-2.5h2.9V145.4z M115.8,141.7h-2.8v-2.5h2.8V141.7z M115.8,138.1h-2.8v-2.6h2.8V138.1z M115.8,134.4h-2.8
		v-2.6h2.8V134.4z M115.9,130.6h-2.8V128h2.8V130.6z M115.9,123.1H113v-2.5h2.9V123.1z M115.9,111.9h-2.8v-2.5h2.8V111.9z
		 M121.1,92.7h2.8v2.6h-2.8V92.7z M121.1,96.4h2.8V99h-2.8V96.4z M123.9,160.4l-1.7,0V125l0-15.6h1.5L123.9,160.4z M120.2,160.4
		h-2.8v-2.6h2.8V160.4z M120.2,156.8h-2.9v-2.6h2.9V156.8z M120.3,153h-2.9v-2.6h2.9V153z M117.4,145.5v-2.6h2.9v2.6H117.4z
		 M120.3,149.2h-2.9v-2.6h2.9V149.2z M120.3,141.8h-2.8l-0.2-2.6h3C120.3,139.2,120.3,141.8,120.3,141.8z M117.4,134.4V132h2.8v2.4
		H117.4z M120.2,135.5v2.6h-2.8v-2.6H120.2z M117.4,130.7V128h2.8v2.7H117.4z M117.4,126.8v-2.6h2.9v2.6H117.4z M120.3,123.1h-2.9
		v-2.5h2.9V123.1z M120.2,113.1v2.6h-2.8v-2.6H120.2z M117.4,111.8v-2.6h2.8v2.6H117.4z M120.2,116.8v2.6l-2.9,0.1v-2.7H120.2z
		 M120.8,105.1h-4.7v-3.3h4.7V105.1z M124.2,170.2H121v-5.8h3.2V170.2z M137.9,109.3h2.8v2.6h-2.8V109.3z M137.9,113.1h2.8v2.6h-2.8
		V113.1z M137.9,116.8l2.8-0.1v2.7h-2.8V116.8z M137.9,120.5h2.8v2.6h-2.8V120.5z M138,130.7V128h2.8v2.7H138z M140.8,131.8v2.6H138
		v-2.6H140.8z M137.9,135.5h2.9v2.5h-2.9V135.5z M138,149.3v-2.7h2.8v2.7H138z M140.8,150.4v2.6h-2.8v-2.6H140.8z M137.9,145.5v-2.6
		h2.8v2.6H137.9z M138,141.8v-2.6h2.8v2.6H138z M137.9,154.2h2.9v2.6h-2.9V154.2z M133.6,116.8h2.8v2.6h-2.8V116.8z M133.6,115.6
		V113h2.8v2.6H133.6z M133.6,128h2.8v2.6h-2.8V128z M133.6,135.5h2.8v2.6h-2.8V135.5z M133.6,142.9h2.8v2.6h-2.8V142.9z M125.5,99
		v-2.5h2.8V99H125.5z M127.2,109.3v51.1l-1.6,0v-51.1L127.2,109.3z M125.5,92.8h2.9v2.5h-2.9V92.8z M128.4,170.2h-3.2v-5.8h3.2
		V170.2z M132.1,160.4h-2.9v-2.6h2.9V160.4z M132,113v2.7h-2.8V113H132z M129.2,111.9v-2.6h2.8v2.6H129.2z M132,116.8v2.6h-2.7v-2.6
		H132z M132.1,135.5v2.6h-2.8v-2.6H132.1z M129.2,134.4v-2.7h2.8v2.7H129.2z M129.3,130.7V128h2.8v2.6H129.3z M132,126.9h-2.8v-2.6
		h2.8V126.9z M132,139.2v2.6h-2.8v-2.6H132z M132.1,142.9v2.6h-2.9v-2.6H132.1z M132.1,146.6v2.6h-2.8v-2.6H132.1z M132,150.4v2.7
		h-2.8v-2.7H132z M132.1,156.7h-2.9v-2.5h2.9V156.7z M132.1,123h-2.9v-2.5h2.9V123z M133.3,105.2h-4.8v-3.3h4.8V105.2z M136.4,160.4
		h-2.8v-2.6h2.8V160.4z M136.4,156.8l-2.8,0.1v-2.7h2.8V156.8z M136.4,153h-2.8v-2.6h2.8V153z M136.4,149.2h-2.8v-2.6h2.8V149.2z
		 M136.4,141.8h-2.8v-2.6h2.8V141.8z M136.4,134.4h-2.8v-2.7h2.8V134.4z M136.4,126.9h-2.8v-2.6h2.8V126.9z M136.4,123.1h-2.9v-2.6
		h2.9V123.1z M136.4,111.8h-2.9v-2.6h2.9V111.8z M140.8,160.5l-2.9,0.1v-2.8h2.9V160.5z M140.8,126.8H138v-2.6h2.8V126.8z"/>
</g>
</svg>
