<?xml version="1.0" encoding="utf-8"?>
<svg version="1.1" id="Layer_1" xmlns="http://www.w3.org/2000/svg" xmlns:xlink="http://www.w3.org/1999/xlink" x="0px" y="0px"
	 viewBox="0 0 100 100" style="enable-background:new 0 0 100 100;" xml:space="preserve">
<style type="text/css">
	.st0{fill:#010101;}
</style>
<g>
	<path class="st0" d="M71.5,95.7l-2-2.4V33.2l1.9-2.2l0.7-0.5l-0.9-0.6h-1.1l-2.2-2L66,26.2h1.7l1.7-0.6L67.7,25H60l-1.9-1.8v-8H55
		l-2.4-1.7L50,2h-1.1l-2.6,11.8l-1.9,1.4h-3.5v8l-1.8,1.7h-8.2l-1.1,0.6l1.1,0.6H33l-1.7,1.6L29,29.9h-0.6l-1,0.5l0.5,0.6l1.8,2.6
		v59.2l-2.2,3.6l-0.2,0.7l0,0h45.3L71.5,95.7z M38,37.4h2.8V40H38V37.4z M37.9,41.1h2.9v2.5h-2.9V41.1z M37.9,48.5h2.8v2.6h-2.8
		V48.5z M33.5,40v-2.7h2.8V40H33.5z M36.3,41.1v2.6h-2.8v-2.6H36.3z M33.5,48.5h2.8v2.6h-2.8V48.5z M33.5,56h2.8v2.6h-2.8V56z
		 M33.5,55v-2.7h2.8v2.6L33.5,55L33.5,55z M33.5,47.4v-2.6h2.9v2.6H33.5z M33.5,36.2v-2.5h2.9v2.5H33.5z M36.3,84.7h-2.8v-2.6h2.8
		V84.7z M36.4,81.1h-2.9v-2.5h2.9V81.1z M36.3,74.7v2.6h-2.8v-2.6H36.3z M33.6,73.5v-2.6h2.8v2.6H33.6z M36.4,69.8h-2.9v-2.6h2.9
		V69.8z M36.4,66.1h-2.9v-2.6h2.9V66.1z M33.5,62.3v-2.6h2.9l0.1,2.6H33.5z M40.7,84.7h-2.8v-2.5h2.9L40.7,84.7L40.7,84.7z
		 M40.7,81.1h-2.8v-2.6h2.8V81.1z M38,77.4v-2.7h2.7v2.7H38z M40.7,73.5h-2.8V71h2.9L40.7,73.5L40.7,73.5z M40.7,69.7h-2.8v-2.5h2.9
		L40.7,69.7L40.7,69.7z M40.7,66h-2.8v-2.5h2.8V66z M40.7,62.4h-2.8v-2.6h2.8V62.4z M40.7,58.7h-2.8v-2.6h2.8V58.7z M40.8,54.9H38
		v-2.6h2.8V54.9z M40.8,47.4h-2.9v-2.5h2.9V47.4z M40.8,36.2H38v-2.5h2.8V36.2z M46,17h2.8v2.6H46V17z M46,20.7h2.8v2.6H46V20.7z
		 M48.8,84.7h-1.7V49.3V33.7h1.5L48.8,84.7z M45.1,84.7h-2.8v-2.6h2.8V84.7z M45.1,81.1h-2.9v-2.6h2.9V81.1z M45.2,77.3h-2.9v-2.6
		h2.9V77.3z M42.3,69.8v-2.6h2.9v2.6H42.3z M45.2,73.5h-2.9v-2.6h2.9V73.5z M45.2,66.1h-2.8l-0.2-2.6h3V66.1z M42.3,58.7v-2.4h2.8
		v2.4H42.3z M45.1,59.8v2.6h-2.8v-2.6H45.1z M42.3,55v-2.7h2.8V55H42.3z M42.3,51.1v-2.6h2.9v2.6H42.3z M45.2,47.4h-2.9v-2.5h2.9
		V47.4z M45.1,37.4V40h-2.8v-2.6H45.1z M42.3,36.1v-2.6h2.8v2.6H42.3z M45.1,41.1v2.6l-2.9,0.1v-2.7H45.1z M45.7,29.4H41v-3.3h4.7
		V29.4z M49.1,94.5h-3.2v-5.8h3.2V94.5z M62.8,33.6h2.8v2.6h-2.8V33.6z M62.8,37.4h2.8V40h-2.8V37.4z M62.8,41.1l2.8-0.1v2.7h-2.8
		V41.1z M62.8,44.8h2.8v2.6h-2.8V44.8z M62.9,55v-2.7h2.8V55H62.9z M65.7,56.1v2.6h-2.8v-2.6H65.7z M62.8,59.8h2.9v2.5h-2.9
		C62.8,62.3,62.8,59.8,62.8,59.8z M62.9,73.6v-2.7h2.8v2.7H62.9z M65.7,74.7v2.6h-2.8v-2.6H65.7z M62.8,69.8v-2.6h2.8v2.6H62.8z
		 M62.9,66.1v-2.6h2.8v2.6H62.9z M62.8,78.5h2.9v2.6h-2.9C62.8,81.1,62.8,78.5,62.8,78.5z M58.5,41.1h2.8v2.6h-2.8V41.1z M58.5,39.9
		v-2.6h2.8v2.6H58.5z M58.5,52.3h2.8v2.6h-2.8V52.3z M58.5,59.8h2.8v2.6h-2.8V59.8z M58.5,67.2h2.8v2.6h-2.8V67.2z M50.4,23.3v-2.5
		h2.8v2.5H50.4z M52.1,33.6v51.1h-1.6V33.6H52.1z M50.4,17.1h2.9v2.5h-2.9V17.1z M53.3,94.5h-3.2v-5.8h3.2V94.5z M57,84.7h-2.9v-2.6
		H57V84.7z M56.9,37.3V40h-2.8v-2.7H56.9z M54.1,36.2v-2.6h2.8v2.6H54.1z M56.9,41.1v2.6h-2.7v-2.6H56.9z M57,59.8v2.6h-2.8v-2.6H57
		z M54.1,58.7V56h2.8v2.7H54.1z M54.2,55v-2.7H57v2.6L54.2,55L54.2,55z M56.9,51.2h-2.8v-2.6h2.8V51.2z M56.9,63.5v2.6h-2.8v-2.6
		H56.9z M57,67.2v2.6h-2.9v-2.6H57z M57,70.9v2.6h-2.8v-2.6H57z M56.9,74.7v2.7h-2.8v-2.7H56.9z M57,81h-2.9v-2.5H57V81z M57,47.3
		h-2.9v-2.5H57V47.3z M58.2,29.5h-4.8v-3.3h4.8V29.5z M61.3,84.7h-2.8v-2.6h2.8V84.7z M61.3,81.1l-2.8,0.1v-2.7h2.8V81.1z
		 M61.3,77.3h-2.8v-2.6h2.8V77.3z M61.3,73.5h-2.8v-2.6h2.8V73.5z M61.3,66.1h-2.8v-2.6h2.8V66.1z M61.3,58.7h-2.8V56h2.8V58.7z
		 M61.3,51.2h-2.8v-2.6h2.8V51.2z M61.3,47.4h-2.9v-2.6h2.9C61.3,44.8,61.3,47.4,61.3,47.4z M61.3,36.1h-2.9v-2.6h2.9
		C61.3,33.5,61.3,36.1,61.3,36.1z M65.7,84.8l-2.9,0.1v-2.8h2.9C65.7,82.1,65.7,84.8,65.7,84.8z M65.7,51.1h-2.8v-2.6h2.8V51.1z"/>
</g>
</svg>
