<?xml version="1.0" encoding="utf-8"?>
<svg version="1.1" id="Layer_1" xmlns="http://www.w3.org/2000/svg" xmlns:xlink="http://www.w3.org/1999/xlink" x="0px" y="0px"
	 viewBox="0 0 100 100" style="enable-background:new 0 0 100 100;" xml:space="preserve">
<style type="text/css">
	.st0{fill:#010101;}
</style>
<g id="XMLID_29_">
	<path id="XMLID_47_" class="st0" d="M66.5,94.6c-0.2,0,0-18.7,0-20c0-8.9,0-17.9,0-26.9s0-17.9,0-26.9c0-1.6,0-3.5,0-5.4
		c0-2.4-1.9-3.5-4-2.3c-1.2,0.6-2.4,1.3-3.6,2V8.2c4.3-0.3,7.2-0.8,7.2-1.3c0-0.9-7.7-1.6-17.2-1.6c-4.6,0-8.7,0.2-11.8,0.4V4.9
		c0-0.2,0-0.3-0.1-0.4h0.8l-1-1l-1-1l-1,1l-1,1h0.8c0,0.1-0.1,0.3-0.1,0.4v1.2c-1.8,0.3-2.8,0.6-2.8,0.9s1.1,0.6,2.9,0.9l10.6,14
		c-2.8,1.5-5.7,3-8.6,4.3c-2,0.9-2.7,2-2.7,4.3c0,8.9,0.1,17.9,0.1,26.9c0,8.9,0,17.9,0,26.9c0,3.5,0,7.1,0,10.6h-3v2.7h38v-2.8
		h-2.5V94.6z M40.4,66.8c6.5-3,12.8-6.2,19.1-9.2c0.7-0.3,1.4-0.6,2.1-0.9c0.6,2.1,0,3.2-1.9,4.1c-6.2,2.8-12.4,5.9-18.6,8.9
		c-0.8,0.4-1.5,0.7-2.4,1.1C38.2,68.8,38.5,67.7,40.4,66.8z M40.5,61.5c7.1-3.3,14.1-6.8,21.2-10.2c0.6,2.3,0,3.4-2,4.2
		c-6.3,2.9-12.5,6-18.8,9c-0.7,0.3-1.4,0.6-2.2,1C38.1,63.5,38.5,62.4,40.5,61.5z M40.1,72.1c6.9-3.3,13.8-6.6,20.7-9.9
		c0.3-0.1,0.5-0.2,0.9-0.3c0.7,2.3-0.3,3.3-2.1,4.1c-6.9,3.2-13.8,6.6-20.9,10C38.3,74.2,38.2,72.9,40.1,72.1z M59.7,50.3
		c-6.5,3-12.9,6.2-19.4,9.3c-0.5,0.3-1,0.5-1.6,0.7c-0.7-2.2,0-3.2,1.9-4.1c6.4-3,12.6-6.1,19-9.1c0.7-0.3,1.4-0.6,2.2-0.9
		C62.4,48.3,61.7,49.4,59.7,50.3z M40.6,51.1C47,48.2,53.2,45,59.5,42c0.7-0.3,1.4-0.6,2.2-1c0.6,2.3-0.2,3.3-2.1,4.2
		c-7,3.2-13.9,6.6-20.9,10C38.1,53.1,38.6,51.9,40.6,51.1z M59.9,39.8c-6.5,3-12.9,6.2-19.3,9.3c-0.6,0.3-1.2,0.5-1.9,0.8
		c-0.6-1.9-0.3-3.1,1.7-4c6.6-3,13.2-6.2,19.7-9.4c0.5-0.3,1-0.4,1.5-0.6C62.3,37.9,61.8,38.9,59.9,39.8z M40.5,40.7
		c7.1-3.2,14.1-6.7,21.2-10.1c0.6,2.3-0.1,3.3-2,4.2c-6.6,3-13,6.2-19.5,9.3c-0.4,0.2-0.9,0.3-1.4,0.5
		C38.1,42.7,38.5,41.6,40.5,40.7z M59.8,29.4c-7,3.2-13.9,6.6-21,10.1c-0.6-2-0.3-3.1,1.6-4c6.5-3,12.9-6.2,19.3-9.3
		c0.6-0.3,1.3-0.6,1.9-0.9C62.4,27.6,61.7,28.6,59.8,29.4z M42.5,8.3c2,0.1,4.1,0.1,6.4,0.1c2,0,3.9,0,5.6-0.1l-2.5,8L42.5,8.3z
		 M40.5,30.3c6.5-3,12.9-6.2,19.3-9.3c0.6-0.3,1.2-0.5,1.8-0.8c0.6,1.9,0.3,3.1-1.7,4c-6.5,3-12.9,6.2-19.3,9.3
		c-0.6,0.3-1.2,0.5-1.9,0.8C38,32.2,38.7,31.2,40.5,30.3z M56.6,94.2h-3.8c0-2.3-0.3-4.7,0.2-6.8c0.1-0.3,0.3-0.6,0.6-0.9
		c0.7-0.7,1.9-1.3,3.1-2.2l0,0l0,0L56.6,94.2L56.6,94.2z M61.5,94.3c-1.4,0-2.5,0-3.8,0c0-3.2,0-6.2,0-9.9c1.5,1.2,3.4,1.9,3.6,3
		C61.8,89.6,61.5,91.9,61.5,94.3z M60,76.2c-7.1,3.3-14.2,6.8-21.4,10.3c-0.8-2.2,0-3.3,1.8-4.1c6.6-3.1,13.2-6.3,19.7-9.5
		c0.4-0.2,0.9-0.4,1.5-0.6C62.1,74.1,62,75.3,60,76.2z M59.8,71.1c-6.4,2.9-12.6,6.1-18.9,9.1c-0.6,0.3-1.3,0.6-2.1,0.9
		c-0.7-2.2,0-3.2,1.8-4c6.5-3,12.9-6.2,19.3-9.3c0.6-0.3,1.2-0.5,1.8-0.7C62.4,69.2,61.7,70.2,59.8,71.1z"/>
</g>
</svg>
