
<svg version="1.1" id="Layer_1" xmlns="http://www.w3.org/2000/svg" xmlns:xlink="http://www.w3.org/1999/xlink" x="0px" y="0px"
	 viewBox="75 75 100 100" style="enable-background:new 75 75 100 100;" xml:space="preserve">
<g id="XMLID_29_">
	<path id="XMLID_47_" d="M141.4,169.7c-0.2,0,0-18.7,0-20c0-8.9,0-17.9,0-26.9s0-17.9,0-26.9c0-1.6,0-3.5,0-5.4c0-2.4-1.9-3.5-4-2.3
		c-1.2,0.6-2.4,1.3-3.6,2v-6.9c4.3-0.3,7.2-0.8,7.2-1.3c0-0.9-7.7-1.6-17.2-1.6c-4.6,0-8.7,0.2-11.8,0.4V80c0-0.2,0-0.3-0.1-0.4h0.8
		l-1-1l-1-1l-1,1l-1,1h0.8c0,0.1-0.1,0.3-0.1,0.4v1.2c-1.8,0.3-2.8,0.6-2.8,0.9c0,0.3,1.1,0.6,2.9,0.9l10.6,14
		c-2.8,1.5-5.7,3-8.6,4.3c-2,0.9-2.7,2-2.7,4.3c0,8.9,0.1,17.9,0.1,26.9c0,8.9,0,17.9,0,26.9c0,3.5,0,7.1,0,10.6h-2.9v2.7h37.9v-2.8
		H141.4z M115.3,141.9c6.5-3,12.8-6.2,19.1-9.2c0.7-0.3,1.4-0.6,2.1-0.9c0.6,2.1,0,3.2-1.9,4.1c-6.2,2.8-12.4,5.9-18.6,8.9
		c-0.8,0.4-1.5,0.7-2.4,1.1C113.1,143.9,113.4,142.8,115.3,141.9z M115.4,136.6c7.1-3.3,14.1-6.8,21.2-10.2c0.6,2.3,0,3.4-2,4.2
		c-6.3,2.9-12.5,6-18.8,9c-0.7,0.3-1.4,0.6-2.2,1C113,138.6,113.4,137.5,115.4,136.6z M115,147.2c6.9-3.3,13.8-6.6,20.7-9.9
		c0.3-0.1,0.5-0.2,0.9-0.3c0.7,2.3-0.3,3.3-2.1,4.1c-6.9,3.2-13.8,6.6-20.9,10C113.2,149.3,113.1,148,115,147.2z M134.6,125.4
		c-6.5,3-12.9,6.2-19.4,9.3c-0.5,0.3-1,0.5-1.6,0.7c-0.7-2.2,0-3.2,1.9-4.1c6.4-3,12.6-6.1,19-9.1c0.7-0.3,1.4-0.6,2.2-0.9
		C137.3,123.4,136.6,124.5,134.6,125.4z M115.5,126.2c6.4-2.9,12.6-6.1,18.9-9.1c0.7-0.3,1.4-0.6,2.2-1c0.6,2.3-0.2,3.3-2.1,4.2
		c-7,3.2-13.9,6.6-20.9,10C113,128.2,113.5,127.1,115.5,126.2z M134.8,114.9c-6.5,3-12.9,6.2-19.3,9.3c-0.6,0.3-1.2,0.5-1.9,0.8
		c-0.6-1.9-0.3-3.1,1.7-4c6.6-3,13.2-6.2,19.7-9.4c0.5-0.3,1-0.4,1.5-0.6C137.2,113,136.7,114.1,134.8,114.9z M115.4,115.8
		c7.1-3.2,14.1-6.7,21.2-10.1c0.6,2.3-0.1,3.3-2,4.2c-6.6,3-13,6.2-19.5,9.3c-0.4,0.2-0.9,0.3-1.4,0.5
		C113,117.8,113.4,116.7,115.4,115.8z M134.7,104.6c-7,3.2-13.9,6.6-21,10.1c-0.6-2-0.3-3.1,1.6-4c6.5-3,12.9-6.2,19.3-9.3
		c0.6-0.3,1.3-0.6,1.9-0.9C137.3,102.7,136.6,103.7,134.7,104.6z M117.4,83.4c2,0.1,4.1,0.1,6.4,0.1c2,0,3.9,0,5.6-0.1l-2.5,8
		L117.4,83.4z M115.4,105.4c6.5-3,12.9-6.2,19.3-9.3c0.6-0.3,1.2-0.5,1.8-0.8c0.6,1.9,0.3,3.1-1.7,4c-6.5,3-12.9,6.2-19.3,9.3
		c-0.6,0.3-1.2,0.5-1.9,0.8C112.9,107.3,113.6,106.3,115.4,105.4z M131.5,169.3h-3.8c0-2.3-0.3-4.7,0.2-6.8c0.1-0.3,0.3-0.6,0.6-0.9
		c0.7-0.7,1.9-1.3,3.1-2.2l0,0l0,0L131.5,169.3L131.5,169.3z M136.4,169.4c-1.4,0-2.5,0-3.8,0c0-3.2,0-6.2,0-9.9
		c1.5,1.2,3.4,1.9,3.6,3C136.7,164.7,136.4,167,136.4,169.4z M134.9,151.3c-7.1,3.3-14.2,6.8-21.4,10.3c-0.8-2.2,0-3.3,1.8-4.1
		c6.6-3.1,13.2-6.3,19.7-9.5c0.4-0.2,0.9-0.4,1.5-0.6C137,149.2,136.9,150.4,134.9,151.3z M134.7,146.2c-6.4,2.9-12.6,6.1-18.9,9.1
		c-0.6,0.3-1.3,0.6-2.1,0.9c-0.7-2.2,0-3.2,1.8-4c6.5-3,12.9-6.2,19.3-9.3c0.6-0.3,1.2-0.5,1.8-0.7
		C137.3,144.3,136.6,145.3,134.7,146.2z"/>
</g>
</svg>
