<?xml version="1.0" encoding="utf-8"?>
<svg version="1.1" id="Layer_1" xmlns="http://www.w3.org/2000/svg" xmlns:xlink="http://www.w3.org/1999/xlink" x="0px" y="0px"
	 viewBox="0 0 100 100" style="enable-background:new 0 0 100 100;" xml:space="preserve">
<style type="text/css">
	.st0{fill:#010101;}
</style>
<g>
	<path class="st0" d="M88.4,92.4l-0.3-54.6l-1.6-2.2v-26h-1.8V8h-1.9V6.7h-2V5.1h-1.9l-0.8-1.3l-0.9-1.6l-0.9,1.6l-0.8,1.3h-1.6v1.6
		h-2.4V8h-1.9v1.6h-2.3v23.8c0,0.8-0.1,1.6-0.1,2.4l-2,2.3c0.1,2-0.1,5.5-0.1,7.5c-10.3,0-20.2,0-30.2,0c0-2.2-0.1-5.8-0.3-7.8
		l-2-2.6c0-0.6,0-1.2,0-1.8V9.5h-2.1V7.8h-1.9V6.5h-2V4.9h-1.5l-0.8-1.3L23.4,2l-0.9,1.6l-0.8,1.3h-1.6v1.6h-2.4v1.3h-1.9v1.7h-2
		v26.2l-1.9,2.1c0,18.3,0,36.6,0,54.8H7.6V97h31.6v-4.4H35c0-0.2,0-0.4,0-0.6c0.1-3.5,0-7,0-10.4c0-2.8,0-5.7,0-8.7
		c10.2,0,20.1,0,30.2,0c0,6.6,0,13,0,19.5h-4.5v4.4h31.6v-4.4H88.4z M17,13.2h12.6c0.7,0,1.2,0.6,1.2,1.2c0,0.7-0.6,1.2-1.2,1.2H17
		c-0.7,0-1.2-0.6-1.2-1.2C15.7,13.8,16.3,13.2,17,13.2z M17,17.3h12.6c0.7,0,1.2,0.6,1.2,1.2c0,0.7-0.6,1.2-1.2,1.2H17
		c-0.7,0-1.2-0.6-1.2-1.2C15.7,17.8,16.3,17.3,17,17.3z M17,21.3h12.6c0.7,0,1.2,0.6,1.2,1.2c0,0.7-0.6,1.2-1.2,1.2H17
		c-0.7,0-1.2-0.6-1.2-1.2C15.7,21.8,16.3,21.3,17,21.3z M17,25.3h12.6c0.7,0,1.2,0.6,1.2,1.2c0,0.7-0.6,1.2-1.2,1.2H17
		c-0.7,0-1.2-0.6-1.2-1.2C15.7,25.8,16.3,25.3,17,25.3z M17,29h12.6c0.7,0,1.2,0.6,1.2,1.2c0,0.7-0.6,1.2-1.2,1.2H17
		c-0.7,0-1.2-0.6-1.2-1.2C15.7,29.6,16.3,29,17,29z M32.1,51.5c0,1.3,0,2.6,0,4.1c-1.4,0-2.7,0-4.1,0c0-1.4,0-2.7,0-4.1
		C29.4,51.5,30.6,51.5,32.1,51.5z M28.2,49.8v-3.9h3.9c0,1.2,0,2.5,0,3.9C30.6,49.8,29.4,49.8,28.2,49.8z M28,78.4
		c0-1.3,0-2.6,0-4.1c1.4,0,2.7,0,4,0c0,1.4,0,2.7,0,4.1C30.7,78.4,29.4,78.4,28,78.4z M32.1,80.1c0,1.3,0,2.6,0,4.1
		c-1.4,0-2.6,0-4,0c0-1.3,0-2.7,0-4.1C29.4,80.1,30.6,80.1,32.1,80.1z M28,72.7c0-1.2,0-2.5,0-4.1c1.3,0,2.6,0,4,0
		c0,1.4,0,2.6,0,4.1C30.8,72.7,29.5,72.7,28,72.7z M21.9,66.9c0-1.3,0-2.5,0-4.1c1.4,0,2.6,0,3.9,0c0,1.4,0,2.6,0,4.1
		C24.6,66.9,23.3,66.9,21.9,66.9z M25.8,68.6c0,1.3,0,2.6,0,4.1c-1.3,0-2.5,0-3.9,0c0-1.3,0-2.7,0-4.1
		C23.2,68.6,24.4,68.6,25.8,68.6z M21.9,61.3c0-1.4,0-2.7,0-4.1c1.3,0,2.6,0,4,0c0,1.3,0,2.6,0,4.1C24.4,61.3,23.2,61.3,21.9,61.3z
		 M25.8,55.5c-1.3,0-2.6,0-3.9,0c0-1.5,0-2.8,0-4.2c1.4,0,2.5,0,3.9,0C25.8,52.7,25.8,54.1,25.8,55.5z M25.7,49.7h-3.9
		c0-1.2,0-2.5,0-4c1.5,0,2.7,0,3.9,0V49.7z M15.7,40c1.5,0,2.7,0,4,0c0,1.3,0,2.6,0,4c-1.3,0-2.6,0-4,0C15.7,42.7,15.7,41.4,15.7,40
		z M15.7,51.5c1.4,0,2.6,0,3.9,0l0.1,3.9h-4C15.7,54.2,15.7,52.9,15.7,51.5z M15.6,57.2c1.4,0,2.7,0,4.1,0c0,1.4,0,2.7,0,4.1
		c-1.5,0-2.7,0-4.1,0C15.6,59.9,15.6,58.6,15.6,57.2z M15.7,78.5c0-1.3,0-2.6,0-4.1c1.3,0,2.6,0,4.1,0c0,1.4,0,2.7,0,4.1
		C18.4,78.5,17.1,78.5,15.7,78.5z M19.7,80.1c0,1.3,0,2.7,0,4.1c-1.3,0-2.6,0-4,0c0-1.3,0-2.6,0-4.1C17.1,80.1,18.3,80.1,19.7,80.1z
		 M15.7,72.7c0-1.5,0-2.7,0-4.1c1.4,0,2.7,0,4.1,0c0,1.4,0,2.7,0,4.1C18.4,72.7,17.1,72.7,15.7,72.7z M15.7,67c0-1.3,0-2.6,0-4
		c1.2,0,2.5,0,3.9,0c0,1.2,0,2.5,0,4C18.3,67,17.1,67,15.7,67z M19.8,89.8c-1.4,0-2.7,0-4.1,0c0-1.3,0-2.6,0-3.9c1.5,0,2.8,0,4.1,0
		C19.8,87.3,19.8,88.5,19.8,89.8z M19.8,49.8c-1.3,0-2.7,0-4.1,0c0-1.3,0-2.5,0-3.9c1.3,0,2.7,0,4.1,0
		C19.8,47.1,19.8,48.4,19.8,49.8z M21.8,74.4c1.3,0,2.6,0,4,0c0,1.3,0,2.6,0,4c-1.3,0-2.5,0-4,0C21.8,77,21.8,75.8,21.8,74.4z
		 M25.9,80.2c0,1.3,0,2.6,0,4.1c-1.4,0-2.6,0-4,0c0-1.4,0-2.7,0-4.1C23.1,80.2,24.4,80.2,25.9,80.2z M25.9,89.9c-1.3,0-2.6,0-4,0
		c0-1.3,0-2.6,0-4c1.3,0,2.6,0,4,0C25.9,87.2,25.9,88.5,25.9,89.9z M25.9,44.1c-1.3,0-2.6,0-4,0c0-1.3,0-2.6,0-3.9c1.3,0,2.6,0,4,0
		C25.9,41.5,25.9,42.7,25.9,44.1z M32.1,89.8c-1.3,0-2.7,0-4.1,0c0-1.3,0-2.5,0-4c1.4,0,2.7,0,4.1,0C32.1,87.2,32.1,88.4,32.1,89.8z
		 M32.1,67c-1.4,0-2.7,0-4.1,0c0-1.4,0-2.7,0-4.1c1.4,0,2.7,0,4.1,0C32.1,64.4,32.1,65.7,32.1,67z M32.1,61.2c-1.3,0-2.6,0-4.1,0
		c0-1.2,0-2.5,0-4c1.2,0,2.5,0,4.1,0C32.1,58.6,32.1,59.8,32.1,61.2z M32.1,44.1c-1.4,0-2.7,0-4.2,0c0-1.3,0-2.5,0-3.9
		c1.4,0,2.7,0,4.2,0C32.1,41.4,32.1,42.7,32.1,44.1z M58.8,48.9c2,0,3.5,0.4,3.5,0.9s-1.6,0.9-3.5,0.9c-2,0-3.5-0.4-3.5-0.9
		S56.9,48.9,58.8,48.9z M50.5,48.9c2,0,3.5,0.4,3.5,0.9s-1.6,0.9-3.5,0.9S47,50.3,47,49.8S48.5,48.9,50.5,48.9z M42.1,48.9
		c2,0,3.5,0.4,3.5,0.9s-1.6,0.9-3.5,0.9c-2,0-3.5-0.4-3.5-0.9S40.1,48.9,42.1,48.9z M42.1,69.5c-2,0-3.5-0.4-3.5-0.9
		s1.6-0.9,3.5-0.9c2,0,3.5,0.4,3.5,0.9S44,69.5,42.1,69.5z M50.5,69.5c-2,0-3.5-0.4-3.5-0.9s1.6-0.9,3.5-0.9c2,0,3.5,0.4,3.5,0.9
		C54.1,69.1,52.5,69.5,50.5,69.5z M58.8,69.5c-2,0-3.5-0.4-3.5-0.9s1.6-0.9,3.5-0.9c2,0,3.5,0.4,3.5,0.9
		C62.4,69.1,60.8,69.5,58.8,69.5z M65.6,64.1H34.1v-9.5h31.5C65.6,54.6,65.6,64.1,65.6,64.1z M85.1,40.2c0,1.2,0,2.5,0,3.9
		c-1.4,0-2.6,0-4,0c0-1.3,0-2.5,0-3.9C82.4,40.2,83.6,40.2,85.1,40.2z M70.7,13.2h12.6c0.7,0,1.2,0.6,1.2,1.2c0,0.7-0.6,1.2-1.2,1.2
		H70.7c-0.7,0-1.2-0.6-1.2-1.2S70.1,13.2,70.7,13.2z M70.7,17.3h12.6c0.7,0,1.2,0.6,1.2,1.2c0,0.7-0.6,1.2-1.2,1.2H70.7
		c-0.7,0-1.2-0.6-1.2-1.2C69.5,17.8,70.1,17.3,70.7,17.3z M70.7,21.3h12.6c0.7,0,1.2,0.6,1.2,1.2c0,0.7-0.6,1.2-1.2,1.2H70.7
		c-0.7,0-1.2-0.6-1.2-1.2C69.5,21.8,70.1,21.3,70.7,21.3z M70.7,25.3h12.6c0.7,0,1.2,0.6,1.2,1.2c0,0.7-0.6,1.2-1.2,1.2H70.7
		c-0.7,0-1.2-0.6-1.2-1.2C69.5,25.8,70.1,25.3,70.7,25.3z M70.7,29h12.6c0.7,0,1.2,0.6,1.2,1.2c0,0.7-0.6,1.2-1.2,1.2H70.7
		c-0.7,0-1.2-0.6-1.2-1.2S70.1,29,70.7,29z M75,72.8c0-1.3,0-2.6,0-4.1c1.3,0,2.5,0,3.9,0c0,1.3,0,2.7,0,4.1
		C77.6,72.8,76.4,72.8,75,72.8z M78.9,74.3c0,1.3,0,2.7,0,4.1c-1.3,0-2.5,0-3.9,0c0-1.3,0-2.6,0-4.1C76.3,74.3,77.5,74.3,78.9,74.3z
		 M74.9,55.6c0-1.4,0-2.7,0-4.2c1.4,0,2.6,0,3.9,0c0,1.4,0,2.7,0,4.2C77.5,55.6,76.3,55.6,74.9,55.6z M75,57.2c1.2,0,2.4,0,3.9,0
		c0,1.4,0,2.7,0,4c-1.3,0-2.6,0-3.9,0C75,60,75,58.7,75,57.2z M74.9,49.9c0-1.3,0-2.6,0-4.1c1.3,0,2.6,0,4,0c0,1.4,0,2.7,0,4.1
		C77.6,49.9,76.4,49.9,74.9,49.9z M68.7,55.5c0-1.3,0-2.6,0-4c1.3,0,2.6,0,4.1,0c0,1.4,0,2.7,0,4C71.5,55.5,70.2,55.5,68.7,55.5z
		 M72.9,57.2c0,1.4,0,2.7,0,4c-1.4,0-2.7,0-4.1,0c0-1.3,0-2.5,0-4C70,57.2,71.4,57.2,72.9,57.2z M68.7,49.8c0-1.2,0-2.5,0-4
		c1.4,0,2.7,0,4.1,0c0,1.4,0,2.7,0,4C71.5,49.8,70.2,49.8,68.7,49.8z M68.7,40.2c1.2,0,2.6,0,4.1,0c0,1.2,0,2.5,0,4
		c-1.4,0-2.7,0-4.1,0C68.7,42.8,68.7,41.6,68.7,40.2z M72.8,89.9c-1.5,0-2.8,0-4.2,0c0-1.4,0-2.6,0-4c1.3,0,2.7,0,4.2,0
		C72.8,87.2,72.8,88.5,72.8,89.9z M72.9,84.2c-1.4,0-2.7,0-4.2,0c0-1.4,0-2.7,0-4.1c1.4,0,2.7,0,4.2,0
		C72.9,81.5,72.9,82.8,72.9,84.2z M72.9,78.4c-1.4,0-2.7,0-4.2,0c0-1.3,0-2.6,0-4c1.3,0,2.6,0,4.2,0C72.9,75.8,72.9,77,72.9,78.4z
		 M72.9,72.7c-1.4,0-2.7,0-4.1,0c0-1.3,0-2.6,0-4.1c1.3,0,2.6,0,4.1,0C72.9,70.1,72.9,71.3,72.9,72.7z M72.9,66.9
		c-1.4,0-2.7,0-4.2,0c0-1.3,0-2.6,0-4c1.4,0,2.7,0,4.2,0C72.9,64.3,72.9,65.6,72.9,66.9z M74.9,40.1c1.3,0,2.5,0,3.9,0
		c0,1.3,0,2.5,0,3.9c-1.2,0-2.5,0-3.9,0C74.9,42.7,74.9,41.5,74.9,40.1z M78.9,89.9c-1.4,0-2.6,0-3.9,0c0-1.3,0-2.6,0-4
		c1.2,0,2.5,0,3.9,0C78.9,87.1,78.9,88.4,78.9,89.9z M78.9,84.2c-1.4,0-2.6,0-3.9,0c0-1.3,0-2.6,0-4.1c1.2,0,2.5,0,3.9,0
		C78.9,81.6,78.9,82.9,78.9,84.2z M79,66.9c-1.3,0-2.6,0-4,0c0-1.3,0-2.5,0-4c1.2,0,2.5,0,4,0C79,64.4,79,65.6,79,66.9z M81.1,74.4
		c1.3,0,2.6,0,4,0c0,1.2,0,2.6,0,4c-1.3,0-2.5,0-4,0C81.1,77.1,81.1,75.9,81.1,74.4z M81.1,72.8c0-1.5,0-2.7,0-4.1c1.4,0,2.6,0,4,0
		c0,1.3,0,2.7,0,4.1C83.8,72.8,82.6,72.8,81.1,72.8z M85.1,80.2c0,1.3,0,2.7,0,4.1c-1.3,0-2.6,0-4,0c0-1.4,0-2.7,0-4.1
		C82.4,80.2,83.6,80.2,85.1,80.2z M85.1,89.9c-1.4,0-2.7,0-4.1,0c0-1.4,0-2.7,0-4.1c1.4,0,2.7,0,4.1,0
		C85.1,87.2,85.1,88.5,85.1,89.9z M85.1,67c-1.4,0-2.7,0-4.1,0c0-1.4,0-2.7,0-4.1c1.4,0,2.7,0,4.1,0C85.1,64.3,85.1,65.6,85.1,67z
		 M85.1,61.3c-1.4,0-2.7,0-4,0c0-1.4,0-2.7,0-4.1c1.3,0,2.6,0,4,0C85.1,58.5,85.1,59.8,85.1,61.3z M85.1,55.6c-1.4,0-2.6,0-4,0
		c0-1.4,0-2.7,0-4.2c1.3,0,2.6,0,4,0C85.1,52.9,85.1,54.2,85.1,55.6z M85.1,49.8c-1.5,0-2.7,0-4,0c0-1.4,0-2.7,0-4.1
		c1.3,0,2.6,0,4,0C85.1,47.1,85.1,48.4,85.1,49.8z"/>
</g>
</svg>
