
<svg version="1.1" id="Layer_1" xmlns="http://www.w3.org/2000/svg" xmlns:xlink="http://www.w3.org/1999/xlink" x="0px" y="0px"
	 viewBox="75 75 100 100" style="enable-background:new 75 75 100 100;" xml:space="preserve">
<g>
	<path d="M163.2,167.8l-0.3-54.6l-1.6-2.2V85h-1.8v-1.6h-1.9v-1.3h-2v-1.6h-1.8l-0.8-1.3l-0.9-1.6l-0.9,1.6l-0.8,1.3h-1.6v1.6h-2.4
		v1.3h-1.9V85h-2.3v23.8c0,0.8-0.1,1.6-0.1,2.4l-2,2.3c0.1,2-0.1,5.5-0.1,7.5c-10.3,0-20.2,0-30.2,0c0-2.2-0.1-5.8-0.3-7.8l-2-2.6
		c0-0.6,0-1.2,0-1.8V84.9h-2.1v-1.7h-1.9v-1.3h-2v-1.6H100l-0.8-1.3l-0.9-1.6l-0.9,1.6l-0.8,1.3h-1.6v1.6h-2.4v1.3h-1.9v1.7h-2v26.2
		l-1.9,2.1c0,18.3,0,36.6,0,54.8h-4.3v4.4h31.6v-4.4h-4.2c0-0.2,0-0.4,0-0.6c0.1-3.5,0-7,0-10.4c0-2.8,0-5.7,0-8.7
		c10.2,0,20.1,0,30.2,0c0,6.6,0,13,0,19.5h-4.5v4.4h31.6v-4.4H163.2z M91.8,88.6h12.6c0.7,0,1.2,0.6,1.2,1.2c0,0.7-0.6,1.2-1.2,1.2
		H91.8c-0.7,0-1.2-0.6-1.2-1.2C90.5,89.2,91.1,88.6,91.8,88.6z M91.8,92.7h12.6c0.7,0,1.2,0.6,1.2,1.2c0,0.7-0.6,1.2-1.2,1.2H91.8
		c-0.7,0-1.2-0.6-1.2-1.2C90.5,93.2,91.1,92.7,91.8,92.7z M91.8,96.7h12.6c0.7,0,1.2,0.6,1.2,1.2c0,0.7-0.6,1.2-1.2,1.2H91.8
		c-0.7,0-1.2-0.6-1.2-1.2C90.5,97.2,91.1,96.7,91.8,96.7z M91.8,100.7h12.6c0.7,0,1.2,0.6,1.2,1.2c0,0.7-0.6,1.2-1.2,1.2H91.8
		c-0.7,0-1.2-0.6-1.2-1.2C90.5,101.2,91.1,100.7,91.8,100.7z M91.8,104.4h12.6c0.7,0,1.2,0.6,1.2,1.2c0,0.7-0.6,1.2-1.2,1.2H91.8
		c-0.7,0-1.2-0.6-1.2-1.2C90.5,105,91.1,104.4,91.8,104.4z M106.9,126.9c0,1.3,0,2.6,0,4.1c-1.4,0-2.7,0-4.1,0c0-1.4,0-2.7,0-4.1
		C104.2,126.9,105.4,126.9,106.9,126.9z M103,125.2v-3.9l3.9,0c0,1.2,0,2.5,0,3.9C105.4,125.2,104.2,125.2,103,125.2z M102.8,153.8
		c0-1.3,0-2.6,0-4.1c1.4,0,2.7,0,4,0c0,1.4,0,2.7,0,4.1C105.5,153.8,104.2,153.8,102.8,153.8z M106.9,155.5c0,1.3,0,2.6,0,4.1
		c-1.4,0-2.6,0-4,0c0-1.3,0-2.7,0-4.1C104.2,155.5,105.4,155.5,106.9,155.5z M102.8,148.1c0-1.2,0-2.5,0-4.1c1.3,0,2.6,0,4,0
		c0,1.4,0,2.6,0,4.1C105.6,148.1,104.3,148.1,102.8,148.1z M96.7,142.3c0-1.3,0-2.5,0-4.1c1.4,0,2.6,0,3.9,0c0,1.4,0,2.6,0,4.1
		C99.4,142.3,98.1,142.3,96.7,142.3z M100.6,144c0,1.3,0,2.6,0,4.1c-1.3,0-2.5,0-3.9,0c0-1.3,0-2.7,0-4.1C98,144,99.2,144,100.6,144
		z M96.7,136.7c0-1.4,0-2.7,0-4.1c1.3,0,2.6,0,4,0c0,1.3,0,2.6,0,4.1C99.2,136.7,98,136.7,96.7,136.7z M100.6,130.9
		c-1.3,0-2.6,0-3.9,0c0-1.5,0-2.8,0-4.2c1.4,0,2.5,0,3.9,0C100.6,128.1,100.6,129.5,100.6,130.9z M100.5,125.1l-3.9,0
		c0-1.2,0-2.5,0-4c1.5,0,2.7,0,3.9,0L100.5,125.1z M90.5,115.4c1.5,0,2.7,0,4,0c0,1.3,0,2.6,0,4c-1.3,0-2.6,0-4,0
		C90.5,118.1,90.5,116.8,90.5,115.4z M90.5,126.9c1.4,0,2.6,0,3.9,0l0.1,3.9h-4C90.5,129.6,90.5,128.3,90.5,126.9z M90.4,132.6
		c1.4,0,2.7,0,4.1,0c0,1.4,0,2.7,0,4.1c-1.5,0-2.7,0-4.1,0C90.4,135.3,90.4,134,90.4,132.6z M90.5,153.9c0-1.3,0-2.6,0-4.1
		c1.3,0,2.6,0,4.1,0c0,1.4,0,2.7,0,4.1C93.2,153.9,91.9,153.9,90.5,153.9z M94.5,155.5c0,1.3,0,2.7,0,4.1c-1.3,0-2.6,0-4,0
		c0-1.3,0-2.6,0-4.1C91.9,155.5,93.1,155.5,94.5,155.5z M90.5,148.1c0-1.5,0-2.7,0-4.1c1.4,0,2.7,0,4.1,0c0,1.4,0,2.7,0,4.1
		C93.2,148.1,91.9,148.1,90.5,148.1z M90.5,142.4c0-1.3,0-2.6,0-4c1.2,0,2.5,0,3.9,0c0,1.2,0,2.5,0,4
		C93.1,142.4,91.9,142.4,90.5,142.4z M94.6,165.2c-1.4,0-2.7,0-4.1,0c0-1.3,0-2.6,0-3.9c1.5,0,2.8,0,4.1,0
		C94.6,162.7,94.6,163.9,94.6,165.2z M94.6,125.2c-1.3,0-2.7,0-4.1,0c0-1.3,0-2.5,0-3.9c1.3,0,2.7,0,4.1,0
		C94.6,122.5,94.6,123.8,94.6,125.2z M96.6,149.8c1.3,0,2.6,0,4,0c0,1.3,0,2.6,0,4c-1.3,0-2.5,0-4,0
		C96.6,152.4,96.6,151.2,96.6,149.8z M100.7,155.6c0,1.3,0,2.6,0,4.1c-1.4,0-2.6,0-4,0c0-1.4,0-2.7,0-4.1
		C97.9,155.6,99.2,155.6,100.7,155.6z M100.7,165.3c-1.3,0-2.6,0-4,0c0-1.3,0-2.6,0-4c1.3,0,2.6,0,4,0
		C100.7,162.6,100.7,163.9,100.7,165.3z M100.7,119.5c-1.3,0-2.6,0-4,0c0-1.3,0-2.6,0-3.9c1.3,0,2.6,0,4,0
		C100.7,116.9,100.7,118.1,100.7,119.5z M106.9,165.2c-1.3,0-2.7,0-4.1,0c0-1.3,0-2.5,0-4c1.4,0,2.7,0,4.1,0
		C106.9,162.6,106.9,163.8,106.9,165.2z M106.9,142.4c-1.4,0-2.7,0-4.1,0c0-1.4,0-2.7,0-4.1c1.4,0,2.7,0,4.1,0
		C106.9,139.8,106.9,141.1,106.9,142.4z M106.9,136.6c-1.3,0-2.6,0-4.1,0c0-1.2,0-2.5,0-4c1.2,0,2.5,0,4.1,0
		C106.9,134,106.9,135.2,106.9,136.6z M106.9,119.5c-1.4,0-2.7,0-4.2,0c0-1.3,0-2.5,0-3.9c1.4,0,2.7,0,4.2,0
		C106.9,116.8,106.9,118.1,106.9,119.5z M133.6,124.3c2,0,3.5,0.4,3.5,0.9s-1.6,0.9-3.5,0.9c-2,0-3.5-0.4-3.5-0.9
		S131.7,124.3,133.6,124.3z M125.3,124.3c2,0,3.5,0.4,3.5,0.9s-1.6,0.9-3.5,0.9s-3.5-0.4-3.5-0.9S123.3,124.3,125.3,124.3z
		 M116.9,124.3c2,0,3.5,0.4,3.5,0.9s-1.6,0.9-3.5,0.9c-2,0-3.5-0.4-3.5-0.9S114.9,124.3,116.9,124.3z M116.9,144.9
		c-2,0-3.5-0.4-3.5-0.9c0-0.5,1.6-0.9,3.5-0.9c2,0,3.5,0.4,3.5,0.9C120.4,144.5,118.8,144.9,116.9,144.9z M125.3,144.9
		c-2,0-3.5-0.4-3.5-0.9c0-0.5,1.6-0.9,3.5-0.9c2,0,3.5,0.4,3.5,0.9C128.9,144.5,127.3,144.9,125.3,144.9z M133.6,144.9
		c-2,0-3.5-0.4-3.5-0.9c0-0.5,1.6-0.9,3.5-0.9c2,0,3.5,0.4,3.5,0.9C137.2,144.5,135.6,144.9,133.6,144.9z M140.4,139.5h-31.5V130
		h31.5V139.5z M159.9,115.6c0,1.2,0,2.5,0,3.9c-1.4,0-2.6,0-4,0c0-1.3,0-2.5,0-3.9C157.2,115.6,158.4,115.6,159.9,115.6z
		 M145.5,88.6h12.6c0.7,0,1.2,0.6,1.2,1.2c0,0.7-0.6,1.2-1.2,1.2h-12.6c-0.7,0-1.2-0.6-1.2-1.2C144.3,89.2,144.9,88.6,145.5,88.6z
		 M145.5,92.7h12.6c0.7,0,1.2,0.6,1.2,1.2c0,0.7-0.6,1.2-1.2,1.2h-12.6c-0.7,0-1.2-0.6-1.2-1.2C144.3,93.2,144.9,92.7,145.5,92.7z
		 M145.5,96.7h12.6c0.7,0,1.2,0.6,1.2,1.2c0,0.7-0.6,1.2-1.2,1.2h-12.6c-0.7,0-1.2-0.6-1.2-1.2C144.3,97.2,144.9,96.7,145.5,96.7z
		 M145.5,100.7h12.6c0.7,0,1.2,0.6,1.2,1.2c0,0.7-0.6,1.2-1.2,1.2h-12.6c-0.7,0-1.2-0.6-1.2-1.2
		C144.3,101.2,144.9,100.7,145.5,100.7z M145.5,104.4h12.6c0.7,0,1.2,0.6,1.2,1.2c0,0.7-0.6,1.2-1.2,1.2h-12.6
		c-0.7,0-1.2-0.6-1.2-1.2S144.9,104.4,145.5,104.4z M149.8,148.2c0-1.3,0-2.6,0-4.1c1.3,0,2.5,0,3.9,0c0,1.3,0,2.7,0,4.1
		C152.4,148.2,151.2,148.2,149.8,148.2z M153.7,149.7c0,1.3,0,2.7,0,4.1c-1.3,0-2.5,0-3.9,0c0-1.3,0-2.6,0-4.1
		C151.1,149.7,152.3,149.7,153.7,149.7z M149.7,131c0-1.4,0-2.7,0-4.2c1.4,0,2.6,0,3.9,0c0,1.4,0,2.7,0,4.2
		C152.3,131,151.1,131,149.7,131z M149.8,132.6c1.2,0,2.4,0,3.9,0c0,1.4,0,2.7,0,4c-1.3,0-2.6,0-3.9,0
		C149.8,135.4,149.8,134.1,149.8,132.6z M149.7,125.3c0-1.3,0-2.6,0-4.1c1.3,0,2.6,0,4,0c0,1.4,0,2.7,0,4.1
		C152.4,125.3,151.2,125.3,149.7,125.3z M143.5,130.9c0-1.3,0-2.6,0-4c1.3,0,2.6,0,4.1,0c0,1.4,0,2.7,0,4
		C146.3,130.9,145,130.9,143.5,130.9z M147.7,132.6c0,1.4,0,2.7,0,4c-1.4,0-2.7,0-4.1,0c0-1.3,0-2.5,0-4
		C144.8,132.6,146.2,132.6,147.7,132.6z M143.5,125.2c0-1.2,0-2.5,0-4c1.4,0,2.7,0,4.1,0c0,1.4,0,2.7,0,4
		C146.3,125.2,145,125.2,143.5,125.2z M143.5,115.6c1.2,0,2.6,0,4.1,0c0,1.2,0,2.5,0,4c-1.4,0-2.7,0-4.1,0
		C143.5,118.2,143.5,117,143.5,115.6z M147.6,165.3c-1.5,0-2.8,0-4.2,0c0-1.4,0-2.6,0-4c1.3,0,2.7,0,4.2,0
		C147.6,162.6,147.6,163.9,147.6,165.3z M147.7,159.6c-1.4,0-2.7,0-4.2,0c0-1.4,0-2.7,0-4.1c1.4,0,2.7,0,4.2,0
		C147.7,156.9,147.7,158.2,147.7,159.6z M147.7,153.8c-1.4,0-2.7,0-4.2,0c0-1.3,0-2.6,0-4c1.3,0,2.6,0,4.2,0
		C147.7,151.2,147.7,152.4,147.7,153.8z M147.7,148.1c-1.4,0-2.7,0-4.1,0c0-1.3,0-2.6,0-4.1c1.3,0,2.6,0,4.1,0
		C147.7,145.5,147.7,146.7,147.7,148.1z M147.7,142.3c-1.4,0-2.7,0-4.2,0c0-1.3,0-2.6,0-4c1.4,0,2.7,0,4.2,0
		C147.7,139.7,147.7,141,147.7,142.3z M149.7,115.5c1.3,0,2.5,0,3.9,0c0,1.3,0,2.5,0,3.9c-1.2,0-2.5,0-3.9,0
		C149.7,118.1,149.7,116.9,149.7,115.5z M153.7,165.3c-1.4,0-2.6,0-3.9,0c0-1.3,0-2.6,0-4c1.2,0,2.5,0,3.9,0
		C153.7,162.5,153.7,163.8,153.7,165.3z M153.7,159.6c-1.4,0-2.6,0-3.9,0c0-1.3,0-2.6,0-4.1c1.2,0,2.5,0,3.9,0
		C153.7,157,153.7,158.3,153.7,159.6z M153.8,142.3c-1.3,0-2.6,0-4,0c0-1.3,0-2.5,0-4c1.2,0,2.5,0,4,0
		C153.8,139.8,153.8,141,153.8,142.3z M155.9,149.8c1.3,0,2.6,0,4,0c0,1.2,0,2.6,0,4c-1.3,0-2.5,0-4,0
		C155.9,152.5,155.9,151.3,155.9,149.8z M155.9,148.2c0-1.5,0-2.7,0-4.1c1.4,0,2.6,0,4,0c0,1.3,0,2.7,0,4.1
		C158.6,148.2,157.4,148.2,155.9,148.2z M159.9,155.6c0,1.3,0,2.7,0,4.1c-1.3,0-2.6,0-4,0c0-1.4,0-2.7,0-4.1
		C157.2,155.6,158.4,155.6,159.9,155.6z M159.9,165.3c-1.4,0-2.7,0-4.1,0c0-1.4,0-2.7,0-4.1c1.4,0,2.7,0,4.1,0
		C159.9,162.6,159.9,163.9,159.9,165.3z M159.9,142.4c-1.4,0-2.7,0-4.1,0c0-1.4,0-2.7,0-4.1c1.4,0,2.7,0,4.1,0
		C159.9,139.7,159.9,141,159.9,142.4z M159.9,136.7c-1.4,0-2.7,0-4,0c0-1.4,0-2.7,0-4.1c1.3,0,2.6,0,4,0
		C159.9,133.9,159.9,135.2,159.9,136.7z M159.9,131c-1.4,0-2.6,0-4,0c0-1.4,0-2.7,0-4.2c1.3,0,2.6,0,4,0
		C159.9,128.3,159.9,129.6,159.9,131z M159.9,125.2c-1.5,0-2.7,0-4,0c0-1.4,0-2.7,0-4.1c1.3,0,2.6,0,4,0
		C159.9,122.5,159.9,123.8,159.9,125.2z"/>
</g>
</svg>
