
<svg version="1.1" id="Building" xmlns="http://www.w3.org/2000/svg" xmlns:xlink="http://www.w3.org/1999/xlink" x="0px" y="0px"
	 viewBox="0 0 100 100" style="enable-background:new 0 0 100 100;" xml:space="preserve">
<path d="M85.5,92.4V37.6l-3.5-3V8.9h-2.1V7.6h-1.6V6.4h-1.5V5.3h-1.2l-0.5-0.8l-0.7-1.2l-0.7,1.2l-0.5,0.8h-1.4v1.1h-1.5v1.2h-1.5
	v1.2H67v25.8l-3.5,3v12.9h-28V37.6l-3.5-3V8.9h-2.1V7.6h-1.6V6.4h-1.5V5.3h-1.2l-0.5-0.8l-0.7-1.2l-0.7,1.2l-0.5,0.8h-1.4v1.1h-1.5
	v1.2h-1.5v1.2H17v25.8l-3.5,3v54.8H9.3v4.3h31.3v-4.3h-5.2V67.9h28v24.5h-4.2v4.3h31.3v-4.3H85.5z M20.8,12.5h7.3
	c0.7,0,1.3,0.6,1.3,1.3c0,0.7-0.6,1.3-1.3,1.3h-7.3c-0.7,0-1.3-0.6-1.3-1.3C19.6,13.1,20.2,12.5,20.8,12.5z M20.8,18h7.3
	c0.7,0,1.3,0.6,1.3,1.3c0,0.7-0.6,1.3-1.3,1.3h-7.3c-0.7,0-1.3-0.6-1.3-1.3C19.6,18.6,20.2,18,20.8,18z M20.8,23.5h7.3
	c0.7,0,1.3,0.6,1.3,1.3c0,0.7-0.6,1.3-1.3,1.3h-7.3c-0.7,0-1.3-0.6-1.3-1.3C19.6,24.1,20.2,23.5,20.8,23.5z M20.4,87.4h-3.8v-4h3.8
	V87.4z M20.4,81.4h-3.8v-4h3.8V81.4z M20.4,75.4h-3.8v-4h3.8V75.4z M20.4,69.4h-3.8v-4h3.8V69.4z M20.4,63.4h-3.8v-4h3.8V63.4z
	 M20.4,57.4h-3.8v-4h3.8V57.4z M20.4,51.4h-3.8v-4h3.8V51.4z M20.4,45.4h-3.8v-4h3.8V45.4z M26.5,87.4h-3.8v-4h3.8V87.4z M22.5,81.2
	v-4h3.8v4H22.5z M26.5,75.4h-3.8v-4h3.8V75.4z M26.5,69.4h-3.8v-4h3.8V69.4z M26.5,63.4h-3.8v-4h3.8V63.4z M26.5,57.4h-3.8v-4h3.8
	V57.4z M26.5,51.4h-3.8v-4h3.8V51.4z M26.5,45.4h-3.8v-4h3.8V45.4z M20.8,31.5c-0.7,0-1.3-0.6-1.3-1.3c0-0.7,0.6-1.3,1.3-1.3h7.3
	c0.7,0,1.3,0.6,1.3,1.3c0,0.7-0.6,1.3-1.3,1.3H20.8z M32.4,87.5h-3.8v-4h3.8V87.5z M32.4,81.5h-3.8v-4h3.8V81.5z M32.4,75.5h-3.8v-4
	h3.8V75.5z M32.4,69.5h-3.8v-4h3.8V69.5z M32.4,63.5h-3.8v-4h3.8V63.5z M32.4,57.5h-3.8v-4h3.8V57.5z M32.4,51.5h-3.8v-4h3.8V51.5z
	 M32.4,45.5h-3.8v-4h3.8V45.5z M52,53.3h8c0.5,0,1,0.5,1,1s-0.4,1-1,1h-8c-0.5,0-1-0.5-1-1S51.4,53.3,52,53.3z M38.8,53.3h8
	c0.5,0,1,0.5,1,1s-0.5,1-1,1h-8c-0.5,0-1-0.5-1-1S38.3,53.3,38.8,53.3z M46.9,65.3h-8c-0.5,0-1-0.5-1-1s0.5-1,1-1h8c0.5,0,1,0.5,1,1
	S47.4,65.3,46.9,65.3z M60,65.3h-8c-0.5,0-1-0.5-1-1s0.5-1,1-1h8c0.5,0,1,0.5,1,1S60.6,65.3,60,65.3z M63.5,61h-28v-3.6h28V61z
	 M70.8,12.5h7.3c0.7,0,1.3,0.6,1.3,1.3c0,0.7-0.6,1.3-1.3,1.3h-7.3c-0.7,0-1.3-0.6-1.3-1.3C69.6,13.1,70.2,12.5,70.8,12.5z M70.8,18
	h7.3c0.7,0,1.3,0.6,1.3,1.3c0,0.7-0.6,1.3-1.3,1.3h-7.3c-0.7,0-1.3-0.6-1.3-1.3C69.6,18.6,70.2,18,70.8,18z M70.8,23.5h7.3
	c0.7,0,1.3,0.6,1.3,1.3c0,0.7-0.6,1.3-1.3,1.3h-7.3c-0.7,0-1.3-0.6-1.3-1.3C69.6,24.1,70.2,23.5,70.8,23.5z M70.4,87.4h-3.8v-4h3.8
	V87.4z M70.4,81.4h-3.8v-4h3.8V81.4z M70.4,75.4h-3.8v-4h3.8V75.4z M70.4,69.4h-3.8v-4h3.8V69.4z M70.4,63.4h-3.8v-4h3.8V63.4z
	 M70.4,57.4h-3.8v-4h3.8V57.4z M70.4,51.4h-3.8v-4h3.8V51.4z M70.4,45.4h-3.8v-4h3.8V45.4z M76.5,87.4h-3.8v-4h3.8V87.4z M72.5,81.2
	v-4h3.8v4H72.5z M76.5,75.4h-3.8v-4h3.8V75.4z M76.5,69.4h-3.8v-4h3.8V69.4z M76.5,63.4h-3.8v-4h3.8V63.4z M76.5,57.4h-3.8v-4h3.8
	V57.4z M76.5,51.4h-3.8v-4h3.8V51.4z M76.5,45.4h-3.8v-4h3.8V45.4z M70.8,31.5c-0.7,0-1.3-0.6-1.3-1.3c0-0.7,0.6-1.3,1.3-1.3h7.3
	c0.7,0,1.3,0.6,1.3,1.3c0,0.7-0.6,1.3-1.3,1.3H70.8z M82.4,87.5h-3.8v-4h3.8V87.5z M82.4,81.5h-3.8v-4h3.8V81.5z M82.4,75.5h-3.8v-4
	h3.8V75.5z M82.4,69.5h-3.8v-4h3.8V69.5z M82.4,63.5h-3.8v-4h3.8V63.5z M82.4,57.5h-3.8v-4h3.8V57.5z M82.4,51.5h-3.8v-4h3.8V51.5z
	 M82.4,45.5h-3.8v-4h3.8V45.5z"/>
</svg>
